<svg width="1921" height="5488" viewBox="0 0 1921 5488" fill="none" xmlns="http://www.w3.org/2000/svg">
<g clip-path="url(#clip0_31_21)">
<rect width="1920" height="5488" transform="translate(0.441406)" fill="#D3C0AF"/>
<path d="M8725.41 3645.99C8725.41 6018.58 6555.12 7942.04 3877.8 7942.04C1200.48 7942.04 -969.812 6018.58 -969.812 3645.99C-969.812 1273.4 1200.48 -650.062 3877.8 -650.062C6555.12 -650.062 8725.41 1273.4 8725.41 3645.99Z" stroke="#A78B73"/>
<path d="M8723.5 3636.24C8723.5 6008.99 6553.07 7932.54 3875.64 7932.54C1198.21 7932.54 -972.225 6008.99 -972.225 3636.24C-972.225 1263.48 1198.21 -660.064 3875.64 -660.064C6553.07 -660.064 8723.5 1263.48 8723.5 3636.24Z" stroke="#A78B73" stroke-width="0.5"/>
<path d="M8723.14 3634.62C8723.14 6007.37 6552.71 7930.92 3875.28 7930.92C1197.85 7930.92 -972.584 6007.37 -972.584 3634.62C-972.584 1261.86 1197.85 -661.684 3875.28 -661.684C6552.71 -661.684 8723.14 1261.86 8723.14 3634.62Z" stroke="#A78B73" stroke-width="0.5"/>
<path d="M8724.56 3636.48C8724.56 6009.23 6554.13 7932.78 3876.7 7932.78C1199.27 7932.78 -971.166 6009.23 -971.166 3636.48C-971.166 1263.72 1199.27 -659.825 3876.7 -659.825C6554.13 -659.825 8724.56 1263.72 8724.56 3636.48Z" stroke="#A78B73" stroke-width="0.5"/>
<path d="M8725.09 3637.56C8725.09 6010.32 6554.66 7933.87 3877.23 7933.87C1199.8 7933.87 -970.637 6010.32 -970.637 3637.56C-970.637 1264.81 1199.8 -658.741 3877.23 -658.741C6554.66 -658.741 8725.09 1264.81 8725.09 3637.56Z" stroke="#A78B73" stroke-width="0.5"/>
<path d="M8726.52 3638.64C8726.52 6011.39 6556.09 7934.94 3878.66 7934.94C1201.23 7934.94 -969.205 6011.39 -969.205 3638.64C-969.205 1265.88 1201.23 -657.668 3878.66 -657.668C6556.09 -657.668 8726.52 1265.88 8726.52 3638.64Z" stroke="#A78B73" stroke-width="0.5"/>
<path d="M8728.26 3638.64C8728.26 6011.32 6557.88 7934.84 3880.49 7934.84C1203.11 7934.84 -967.271 6011.32 -967.271 3638.64C-967.271 1265.95 1203.11 -657.568 3880.49 -657.568C6557.88 -657.568 8728.26 1265.95 8728.26 3638.64Z" stroke="#A78B73" stroke-width="0.7"/>
<path d="M8730.26 3638.64C8730.26 6011.26 6559.94 7934.74 3882.6 7934.74C1205.26 7934.74 -965.062 6011.26 -965.062 3638.64C-965.062 1266.01 1205.26 -657.468 3882.6 -657.468C6559.94 -657.468 8730.26 1266.01 8730.26 3638.64Z" stroke="#A78B73" stroke-width="0.9"/>
<path d="M8719.7 3634.9C8719.7 6007.49 6549.41 7930.96 3872.09 7930.96C1194.77 7930.96 -975.523 6007.49 -975.523 3634.9C-975.523 1262.31 1194.77 -661.15 3872.09 -661.15C6549.41 -661.15 8719.7 1262.31 8719.7 3634.9Z" stroke="#A78B73"/>
<path d="M8717.79 3625.15C8717.79 5997.91 6547.36 7921.45 3869.93 7921.45C1192.5 7921.45 -977.936 5997.91 -977.936 3625.15C-977.936 1252.4 1192.5 -671.152 3869.93 -671.152C6547.36 -671.152 8717.79 1252.4 8717.79 3625.15Z" stroke="#A78B73" stroke-width="0.5"/>
<path d="M8717.43 3623.53C8717.43 5996.29 6547 7919.83 3869.57 7919.83C1192.14 7919.83 -978.295 5996.29 -978.295 3623.53C-978.295 1250.78 1192.14 -672.771 3869.57 -672.771C6547 -672.771 8717.43 1250.78 8717.43 3623.53Z" stroke="#A78B73" stroke-width="0.5"/>
<path d="M8718.85 3625.39C8718.85 5998.15 6548.42 7921.69 3870.99 7921.69C1193.56 7921.69 -976.877 5998.15 -976.877 3625.39C-976.877 1252.64 1193.56 -670.913 3870.99 -670.913C6548.42 -670.913 8718.85 1252.64 8718.85 3625.39Z" stroke="#A78B73" stroke-width="0.5"/>
<path d="M8719.38 3626.47C8719.38 5999.23 6548.95 7922.78 3871.52 7922.78C1194.09 7922.78 -976.348 5999.23 -976.348 3626.47C-976.348 1253.72 1194.09 -669.829 3871.52 -669.829C6548.95 -669.829 8719.38 1253.72 8719.38 3626.47Z" stroke="#A78B73" stroke-width="0.5"/>
<path d="M8720.81 3627.55C8720.81 6000.3 6550.38 7923.85 3872.95 7923.85C1195.52 7923.85 -974.916 6000.3 -974.916 3627.55C-974.916 1254.79 1195.52 -668.756 3872.95 -668.756C6550.38 -668.756 8720.81 1254.79 8720.81 3627.55Z" stroke="#A78B73" stroke-width="0.5"/>
<path d="M8722.54 3627.55C8722.54 6000.24 6552.17 7923.75 3874.78 7923.75C1197.39 7923.75 -972.982 6000.24 -972.982 3627.55C-972.982 1254.86 1197.39 -668.656 3874.78 -668.656C6552.17 -668.656 8722.54 1254.86 8722.54 3627.55Z" stroke="#A78B73" stroke-width="0.7"/>
<path d="M8724.55 3627.55C8724.55 6000.17 6554.23 7923.65 3876.89 7923.65C1199.55 7923.65 -970.773 6000.17 -970.773 3627.55C-970.773 1254.92 1199.55 -668.556 3876.89 -668.556C6554.23 -668.556 8724.55 1254.92 8724.55 3627.55Z" stroke="#A78B73" stroke-width="0.9"/>
<path d="M8711.67 3625.46C8711.67 5998.05 6541.38 7921.51 3864.06 7921.51C1186.74 7921.51 -983.557 5998.05 -983.557 3625.46C-983.557 1252.87 1186.74 -670.595 3864.06 -670.595C6541.38 -670.595 8711.67 1252.87 8711.67 3625.46Z" stroke="#A78B73"/>
<path d="M8709.76 3615.71C8709.76 5988.46 6539.32 7912.01 3861.89 7912.01C1184.46 7912.01 -985.969 5988.46 -985.969 3615.71C-985.969 1242.95 1184.46 -680.597 3861.89 -680.597C6539.32 -680.597 8709.76 1242.95 8709.76 3615.71Z" stroke="#A78B73" stroke-width="0.5"/>
<path d="M8709.4 3614.09C8709.4 5986.84 6538.97 7910.39 3861.54 7910.39C1184.1 7910.39 -986.328 5986.84 -986.328 3614.09C-986.328 1241.33 1184.1 -682.217 3861.54 -682.217C6538.97 -682.217 8709.4 1241.33 8709.4 3614.09Z" stroke="#A78B73" stroke-width="0.5"/>
<path d="M8710.82 3615.95C8710.82 5988.7 6540.38 7912.25 3862.95 7912.25C1185.52 7912.25 -984.91 5988.7 -984.91 3615.95C-984.91 1243.19 1185.52 -680.358 3862.95 -680.358C6540.38 -680.358 8710.82 1243.19 8710.82 3615.95Z" stroke="#A78B73" stroke-width="0.5"/>
<path d="M8711.35 3617.03C8711.35 5989.78 6540.91 7913.33 3863.48 7913.33C1186.05 7913.33 -984.381 5989.78 -984.381 3617.03C-984.381 1244.27 1186.05 -679.274 3863.48 -679.274C6540.91 -679.274 8711.35 1244.27 8711.35 3617.03Z" stroke="#A78B73" stroke-width="0.5"/>
<path d="M8712.78 3618.1C8712.78 5990.86 6542.34 7914.41 3864.91 7914.41C1187.48 7914.41 -982.949 5990.86 -982.949 3618.1C-982.949 1245.35 1187.48 -678.201 3864.91 -678.201C6542.34 -678.201 8712.78 1245.35 8712.78 3618.1Z" stroke="#A78B73" stroke-width="0.5"/>
<path d="M8714.51 3618.1C8714.51 5990.79 6544.13 7914.31 3866.75 7914.31C1189.36 7914.31 -981.015 5990.79 -981.015 3618.1C-981.015 1245.41 1189.36 -678.101 3866.75 -678.101C6544.13 -678.101 8714.51 1245.41 8714.51 3618.1Z" stroke="#A78B73" stroke-width="0.7"/>
<path d="M8716.52 3618.1C8716.52 5990.72 6546.2 7914.21 3868.86 7914.21C1191.51 7914.21 -978.806 5990.72 -978.806 3618.1C-978.806 1245.48 1191.51 -678.001 3868.86 -678.001C6546.2 -678.001 8716.52 1245.48 8716.52 3618.1Z" stroke="#A78B73" stroke-width="0.9"/>
<path d="M8703.35 3616.7C8703.35 5989.29 6533.06 7912.75 3855.73 7912.75C1178.41 7912.75 -991.879 5989.29 -991.879 3616.7C-991.879 1244.11 1178.41 -679.355 3855.73 -679.355C6533.06 -679.355 8703.35 1244.11 8703.35 3616.7Z" stroke="#A78B73"/>
<path d="M8701.44 3606.95C8701.44 5979.7 6531 7903.25 3853.57 7903.25C1176.14 7903.25 -994.291 5979.7 -994.291 3606.95C-994.291 1234.19 1176.14 -689.357 3853.57 -689.357C6531 -689.357 8701.44 1234.19 8701.44 3606.95Z" stroke="#A78B73" stroke-width="0.5"/>
<path d="M8701.08 3605.33C8701.08 5978.08 6530.64 7901.63 3853.21 7901.63C1175.78 7901.63 -994.65 5978.08 -994.65 3605.33C-994.65 1232.57 1175.78 -690.977 3853.21 -690.977C6530.64 -690.977 8701.08 1232.57 8701.08 3605.33Z" stroke="#A78B73" stroke-width="0.5"/>
<path d="M8702.49 3607.19C8702.49 5979.94 6532.06 7903.49 3854.63 7903.49C1177.2 7903.49 -993.232 5979.94 -993.232 3607.19C-993.232 1234.43 1177.2 -689.118 3854.63 -689.118C6532.06 -689.118 8702.49 1234.43 8702.49 3607.19Z" stroke="#A78B73" stroke-width="0.5"/>
<path d="M8703.02 3608.27C8703.02 5981.02 6532.59 7904.57 3855.16 7904.57C1177.73 7904.57 -992.703 5981.02 -992.703 3608.27C-992.703 1235.51 1177.73 -688.034 3855.16 -688.034C6532.59 -688.034 8703.02 1235.51 8703.02 3608.27Z" stroke="#A78B73" stroke-width="0.5"/>
<path d="M8704.46 3609.34C8704.46 5982.1 6534.02 7905.65 3856.59 7905.65C1179.16 7905.65 -991.271 5982.1 -991.271 3609.34C-991.271 1236.59 1179.16 -686.961 3856.59 -686.961C6534.02 -686.961 8704.46 1236.59 8704.46 3609.34Z" stroke="#A78B73" stroke-width="0.5"/>
<path d="M8706.19 3609.34C8706.19 5982.03 6535.81 7905.55 3858.43 7905.55C1181.04 7905.55 -989.338 5982.03 -989.338 3609.34C-989.338 1236.65 1181.04 -686.861 3858.43 -686.861C6535.81 -686.861 8706.19 1236.65 8706.19 3609.34Z" stroke="#A78B73" stroke-width="0.7"/>
<path d="M8708.2 3609.34C8708.2 5981.97 6537.88 7905.45 3860.54 7905.45C1183.19 7905.45 -987.128 5981.97 -987.128 3609.34C-987.128 1236.72 1183.19 -686.761 3860.54 -686.761C6537.88 -686.761 8708.2 1236.72 8708.2 3609.34Z" stroke="#A78B73" stroke-width="0.9"/>
<path d="M8696.14 3606.71C8696.14 5979.3 6525.85 7902.76 3848.53 7902.76C1171.2 7902.76 -999.088 5979.3 -999.088 3606.71C-999.088 1234.12 1171.2 -689.348 3848.53 -689.348C6525.85 -689.348 8696.14 1234.12 8696.14 3606.71Z" stroke="#A78B73"/>
<path d="M8694.23 3596.95C8694.23 5969.71 6523.79 7893.26 3846.36 7893.26C1168.93 7893.26 -1001.5 5969.71 -1001.5 3596.95C-1001.5 1224.2 1168.93 -699.35 3846.36 -699.35C6523.79 -699.35 8694.23 1224.2 8694.23 3596.95Z" stroke="#A78B73" stroke-width="0.5"/>
<path d="M8693.87 3595.33C8693.87 5968.09 6523.43 7891.64 3846 7891.64C1168.57 7891.64 -1001.86 5968.09 -1001.86 3595.33C-1001.86 1222.58 1168.57 -700.969 3846 -700.969C6523.43 -700.969 8693.87 1222.58 8693.87 3595.33Z" stroke="#A78B73" stroke-width="0.5"/>
<path d="M8695.29 3597.19C8695.29 5969.95 6524.85 7893.5 3847.42 7893.5C1169.99 7893.5 -1000.44 5969.95 -1000.44 3597.19C-1000.44 1224.44 1169.99 -699.11 3847.42 -699.11C6524.85 -699.11 8695.29 1224.44 8695.29 3597.19Z" stroke="#A78B73" stroke-width="0.5"/>
<path d="M8695.81 3598.28C8695.81 5971.03 6525.38 7894.58 3847.95 7894.58C1170.52 7894.58 -999.912 5971.03 -999.912 3598.28C-999.912 1225.52 1170.52 -698.026 3847.95 -698.026C6525.38 -698.026 8695.81 1225.52 8695.81 3598.28Z" stroke="#A78B73" stroke-width="0.5"/>
<path d="M8697.25 3599.35C8697.25 5972.11 6526.81 7895.65 3849.38 7895.65C1171.95 7895.65 -998.48 5972.11 -998.48 3599.35C-998.48 1226.59 1171.95 -696.953 3849.38 -696.953C6526.81 -696.953 8697.25 1226.59 8697.25 3599.35Z" stroke="#A78B73" stroke-width="0.5"/>
<path d="M8698.98 3599.35C8698.98 5972.04 6528.6 7895.55 3851.22 7895.55C1173.83 7895.55 -996.546 5972.04 -996.546 3599.35C-996.546 1226.66 1173.83 -696.853 3851.22 -696.853C6528.6 -696.853 8698.98 1226.66 8698.98 3599.35Z" stroke="#A78B73" stroke-width="0.7"/>
<path d="M8700.99 3599.35C8700.99 5971.97 6530.67 7895.45 3853.33 7895.45C1175.98 7895.45 -994.337 5971.97 -994.337 3599.35C-994.337 1226.73 1175.98 -696.753 3853.33 -696.753C6530.67 -696.753 8700.99 1226.73 8700.99 3599.35Z" stroke="#A78B73" stroke-width="0.9"/>
<path d="M8690.43 3595.62C8690.43 5968.21 6520.14 7891.67 3842.81 7891.67C1165.49 7891.67 -1004.8 5968.21 -1004.8 3595.62C-1004.8 1223.03 1165.49 -700.435 3842.81 -700.435C6520.14 -700.435 8690.43 1223.03 8690.43 3595.62Z" stroke="#A78B73"/>
<path d="M8688.52 3585.87C8688.52 5958.62 6518.08 7882.17 3840.65 7882.17C1163.22 7882.17 -1007.21 5958.62 -1007.21 3585.87C-1007.21 1213.11 1163.22 -710.437 3840.65 -710.437C6518.08 -710.437 8688.52 1213.11 8688.52 3585.87Z" stroke="#A78B73" stroke-width="0.5"/>
<path d="M8688.16 3584.25C8688.16 5957 6517.72 7880.55 3840.29 7880.55C1162.86 7880.55 -1007.57 5957 -1007.57 3584.25C-1007.57 1211.49 1162.86 -712.057 3840.29 -712.057C6517.72 -712.057 8688.16 1211.49 8688.16 3584.25Z" stroke="#A78B73" stroke-width="0.5"/>
<path d="M8689.57 3586.11C8689.57 5958.86 6519.14 7882.41 3841.71 7882.41C1164.28 7882.41 -1006.15 5958.86 -1006.15 3586.11C-1006.15 1213.35 1164.28 -710.198 3841.71 -710.198C6519.14 -710.198 8689.57 1213.35 8689.57 3586.11Z" stroke="#A78B73" stroke-width="0.5"/>
<path d="M8690.1 3587.19C8690.1 5959.94 6519.67 7883.49 3842.24 7883.49C1164.81 7883.49 -1005.62 5959.94 -1005.62 3587.19C-1005.62 1214.43 1164.81 -709.114 3842.24 -709.114C6519.67 -709.114 8690.1 1214.43 8690.1 3587.19Z" stroke="#A78B73" stroke-width="0.5"/>
<path d="M8691.54 3588.26C8691.54 5961.02 6521.1 7884.57 3843.67 7884.57C1166.24 7884.57 -1004.19 5961.02 -1004.19 3588.26C-1004.19 1215.51 1166.24 -708.041 3843.67 -708.041C6521.1 -708.041 8691.54 1215.51 8691.54 3588.26Z" stroke="#A78B73" stroke-width="0.5"/>
<path d="M8693.27 3588.26C8693.27 5960.95 6522.89 7884.47 3845.51 7884.47C1168.12 7884.47 -1002.26 5960.95 -1002.26 3588.26C-1002.26 1215.57 1168.12 -707.941 3845.51 -707.941C6522.89 -707.941 8693.27 1215.57 8693.27 3588.26Z" stroke="#A78B73" stroke-width="0.7"/>
<path d="M8695.28 3588.26C8695.28 5960.88 6524.96 7884.37 3847.62 7884.37C1170.27 7884.37 -1000.05 5960.88 -1000.05 3588.26C-1000.05 1215.64 1170.27 -707.841 3847.62 -707.841C6524.96 -707.841 8695.28 1215.64 8695.28 3588.26Z" stroke="#A78B73" stroke-width="0.9"/>
<path d="M8682.39 3586.17C8682.39 5958.76 6512.1 7882.23 3834.78 7882.23C1157.46 7882.23 -1012.83 5958.76 -1012.83 3586.17C-1012.83 1213.58 1157.46 -709.881 3834.78 -709.881C6512.1 -709.881 8682.39 1213.58 8682.39 3586.17Z" stroke="#A78B73"/>
<path d="M8680.48 3576.42C8680.48 5949.18 6510.05 7872.72 3832.62 7872.72C1155.19 7872.72 -1015.24 5949.18 -1015.24 3576.42C-1015.24 1203.67 1155.19 -719.883 3832.62 -719.883C6510.05 -719.883 8680.48 1203.67 8680.48 3576.42Z" stroke="#A78B73" stroke-width="0.5"/>
<path d="M8680.12 3574.8C8680.12 5947.56 6509.69 7871.1 3832.26 7871.1C1154.83 7871.1 -1015.6 5947.56 -1015.6 3574.8C-1015.6 1202.05 1154.83 -721.502 3832.26 -721.502C6509.69 -721.502 8680.12 1202.05 8680.12 3574.8Z" stroke="#A78B73" stroke-width="0.5"/>
<path d="M8681.54 3576.66C8681.54 5949.42 6511.11 7872.96 3833.68 7872.96C1156.25 7872.96 -1014.19 5949.42 -1014.19 3576.66C-1014.19 1203.9 1156.25 -719.643 3833.68 -719.643C6511.11 -719.643 8681.54 1203.9 8681.54 3576.66Z" stroke="#A78B73" stroke-width="0.5"/>
<path d="M8682.07 3577.74C8682.07 5950.5 6511.64 7874.05 3834.21 7874.05C1156.78 7874.05 -1013.66 5950.5 -1013.66 3577.74C-1013.66 1204.99 1156.78 -718.559 3834.21 -718.559C6511.64 -718.559 8682.07 1204.99 8682.07 3577.74Z" stroke="#A78B73" stroke-width="0.5"/>
<path d="M8683.5 3578.82C8683.5 5951.57 6513.07 7875.12 3835.64 7875.12C1158.21 7875.12 -1012.22 5951.57 -1012.22 3578.82C-1012.22 1206.06 1158.21 -717.486 3835.64 -717.486C6513.07 -717.486 8683.5 1206.06 8683.5 3578.82Z" stroke="#A78B73" stroke-width="0.5"/>
<path d="M8685.24 3578.82C8685.24 5951.51 6514.86 7875.02 3837.47 7875.02C1160.09 7875.02 -1010.29 5951.51 -1010.29 3578.82C-1010.29 1206.13 1160.09 -717.386 3837.47 -717.386C6514.86 -717.386 8685.24 1206.13 8685.24 3578.82Z" stroke="#A78B73" stroke-width="0.7"/>
<path d="M8687.25 3578.82C8687.25 5951.44 6516.93 7874.92 3839.58 7874.92C1162.24 7874.92 -1008.08 5951.44 -1008.08 3578.82C-1008.08 1206.19 1162.24 -717.286 3839.58 -717.286C6516.93 -717.286 8687.25 1206.19 8687.25 3578.82Z" stroke="#A78B73" stroke-width="0.9"/>
<path d="M8674.07 3577.41C8674.07 5950 6503.78 7873.47 3826.46 7873.47C1149.14 7873.47 -1021.15 5950 -1021.15 3577.41C-1021.15 1204.82 1149.14 -718.64 3826.46 -718.64C6503.78 -718.64 8674.07 1204.82 8674.07 3577.41Z" stroke="#A78B73"/>
<path d="M8672.16 3567.66C8672.16 5940.42 6501.73 7863.96 3824.3 7863.96C1146.87 7863.96 -1023.57 5940.42 -1023.57 3567.66C-1023.57 1194.91 1146.87 -728.642 3824.3 -728.642C6501.73 -728.642 8672.16 1194.91 8672.16 3567.66Z" stroke="#A78B73" stroke-width="0.5"/>
<path d="M8671.8 3566.04C8671.8 5938.8 6501.37 7862.34 3823.94 7862.34C1146.51 7862.34 -1023.93 5938.8 -1023.93 3566.04C-1023.93 1193.29 1146.51 -730.262 3823.94 -730.262C6501.37 -730.262 8671.8 1193.29 8671.8 3566.04Z" stroke="#A78B73" stroke-width="0.5"/>
<path d="M8673.22 3567.9C8673.22 5940.66 6502.79 7864.2 3825.36 7864.2C1147.93 7864.2 -1022.51 5940.66 -1022.51 3567.9C-1022.51 1195.14 1147.93 -728.403 3825.36 -728.403C6502.79 -728.403 8673.22 1195.14 8673.22 3567.9Z" stroke="#A78B73" stroke-width="0.5"/>
<path d="M8673.75 3568.98C8673.75 5941.74 6503.31 7865.29 3825.88 7865.29C1148.45 7865.29 -1021.98 5941.74 -1021.98 3568.98C-1021.98 1196.23 1148.45 -727.319 3825.88 -727.319C6503.31 -727.319 8673.75 1196.23 8673.75 3568.98Z" stroke="#A78B73" stroke-width="0.5"/>
<path d="M8675.18 3570.06C8675.18 5942.81 6504.75 7866.36 3827.32 7866.36C1149.89 7866.36 -1020.55 5942.81 -1020.55 3570.06C-1020.55 1197.3 1149.89 -726.246 3827.32 -726.246C6504.75 -726.246 8675.18 1197.3 8675.18 3570.06Z" stroke="#A78B73" stroke-width="0.5"/>
<path d="M8676.91 3570.06C8676.91 5942.75 6506.54 7866.26 3829.15 7866.26C1151.76 7866.26 -1018.61 5942.75 -1018.61 3570.06C-1018.61 1197.37 1151.76 -726.146 3829.15 -726.146C6506.54 -726.146 8676.91 1197.37 8676.91 3570.06Z" stroke="#A78B73" stroke-width="0.7"/>
<path d="M8678.92 3570.06C8678.92 5942.68 6508.6 7866.16 3831.26 7866.16C1153.92 7866.16 -1016.4 5942.68 -1016.4 3570.06C-1016.4 1197.43 1153.92 -726.046 3831.26 -726.046C6508.6 -726.046 8678.92 1197.43 8678.92 3570.06Z" stroke="#A78B73" stroke-width="0.9"/>
<path d="M8675.59 3558.21C8675.59 5930.8 6505.3 7854.26 3827.98 7854.26C1150.66 7854.26 -1019.63 5930.8 -1019.63 3558.21C-1019.63 1185.62 1150.66 -737.844 3827.98 -737.844C6505.3 -737.844 8675.59 1185.62 8675.59 3558.21Z" stroke="#A78B73"/>
<path d="M8673.68 3548.46C8673.68 5921.21 6503.25 7844.76 3825.82 7844.76C1148.39 7844.76 -1022.05 5921.21 -1022.05 3548.46C-1022.05 1175.7 1148.39 -747.846 3825.82 -747.846C6503.25 -747.846 8673.68 1175.7 8673.68 3548.46Z" stroke="#A78B73" stroke-width="0.5"/>
<path d="M8673.32 3546.84C8673.32 5919.59 6502.89 7843.14 3825.46 7843.14C1148.03 7843.14 -1022.41 5919.59 -1022.41 3546.84C-1022.41 1174.08 1148.03 -749.465 3825.46 -749.465C6502.89 -749.465 8673.32 1174.08 8673.32 3546.84Z" stroke="#A78B73" stroke-width="0.5"/>
<path d="M8674.74 3548.7C8674.74 5921.45 6504.31 7845 3826.88 7845C1149.44 7845 -1020.99 5921.45 -1020.99 3548.7C-1020.99 1175.94 1149.44 -747.606 3826.88 -747.606C6504.31 -747.606 8674.74 1175.94 8674.74 3548.7Z" stroke="#A78B73" stroke-width="0.5"/>
<path d="M8675.27 3549.78C8675.27 5922.54 6504.83 7846.08 3827.4 7846.08C1149.97 7846.08 -1020.46 5922.54 -1020.46 3549.78C-1020.46 1177.03 1149.97 -746.522 3827.4 -746.522C6504.83 -746.522 8675.27 1177.03 8675.27 3549.78Z" stroke="#A78B73" stroke-width="0.5"/>
<path d="M8676.7 3550.85C8676.7 5923.61 6506.27 7847.16 3828.84 7847.16C1151.41 7847.16 -1019.03 5923.61 -1019.03 3550.85C-1019.03 1178.1 1151.41 -745.45 3828.84 -745.45C6506.27 -745.45 8676.7 1178.1 8676.7 3550.85Z" stroke="#A78B73" stroke-width="0.5"/>
<path d="M8678.43 3550.85C8678.43 5923.54 6508.06 7847.06 3830.67 7847.06C1153.28 7847.06 -1017.09 5923.54 -1017.09 3550.85C-1017.09 1178.16 1153.28 -745.35 3830.67 -745.35C6508.06 -745.35 8678.43 1178.16 8678.43 3550.85Z" stroke="#A78B73" stroke-width="0.7"/>
<path d="M8680.44 3550.85C8680.44 5923.48 6510.12 7846.96 3832.78 7846.96C1155.44 7846.96 -1014.88 5923.48 -1014.88 3550.85C-1014.88 1178.23 1155.44 -745.25 3832.78 -745.25C6510.12 -745.25 8680.44 1178.23 8680.44 3550.85Z" stroke="#A78B73" stroke-width="0.9"/>
<path d="M8669.88 3547.12C8669.88 5919.71 6499.59 7843.17 3822.27 7843.17C1144.95 7843.17 -1025.35 5919.71 -1025.35 3547.12C-1025.35 1174.53 1144.95 -748.932 3822.27 -748.932C6499.59 -748.932 8669.88 1174.53 8669.88 3547.12Z" stroke="#A78B73"/>
<path d="M8667.97 3537.37C8667.97 5910.12 6497.54 7833.67 3820.11 7833.67C1142.68 7833.67 -1027.76 5910.12 -1027.76 3537.37C-1027.76 1164.61 1142.68 -758.934 3820.11 -758.934C6497.54 -758.934 8667.97 1164.61 8667.97 3537.37Z" stroke="#A78B73" stroke-width="0.5"/>
<path d="M8667.61 3535.75C8667.61 5908.51 6497.18 7832.05 3819.75 7832.05C1142.32 7832.05 -1028.12 5908.51 -1028.12 3535.75C-1028.12 1162.99 1142.32 -760.553 3819.75 -760.553C6497.18 -760.553 8667.61 1162.99 8667.61 3535.75Z" stroke="#A78B73" stroke-width="0.5"/>
<path d="M8669.03 3537.61C8669.03 5910.36 6498.59 7833.91 3821.16 7833.91C1143.73 7833.91 -1026.7 5910.36 -1026.7 3537.61C-1026.7 1164.85 1143.73 -758.694 3821.16 -758.694C6498.59 -758.694 8669.03 1164.85 8669.03 3537.61Z" stroke="#A78B73" stroke-width="0.5"/>
<path d="M8669.56 3538.69C8669.56 5911.45 6499.12 7835 3821.69 7835C1144.26 7835 -1026.17 5911.45 -1026.17 3538.69C-1026.17 1165.94 1144.26 -757.61 3821.69 -757.61C6499.12 -757.61 8669.56 1165.94 8669.56 3538.69Z" stroke="#A78B73" stroke-width="0.5"/>
<path d="M8670.99 3539.77C8670.99 5912.52 6500.56 7836.07 3823.12 7836.07C1145.69 7836.07 -1024.74 5912.52 -1024.74 3539.77C-1024.74 1167.01 1145.69 -756.537 3823.12 -756.537C6500.56 -756.537 8670.99 1167.01 8670.99 3539.77Z" stroke="#A78B73" stroke-width="0.5"/>
<path d="M8672.72 3539.77C8672.72 5912.46 6502.35 7835.97 3824.96 7835.97C1147.57 7835.97 -1022.8 5912.46 -1022.8 3539.77C-1022.8 1167.08 1147.57 -756.437 3824.96 -756.437C6502.35 -756.437 8672.72 1167.08 8672.72 3539.77Z" stroke="#A78B73" stroke-width="0.7"/>
<path d="M8674.73 3539.77C8674.73 5912.39 6504.41 7835.87 3827.07 7835.87C1149.73 7835.87 -1020.59 5912.39 -1020.59 3539.77C-1020.59 1167.14 1149.73 -756.337 3827.07 -756.337C6504.41 -756.337 8674.73 1167.14 8674.73 3539.77Z" stroke="#A78B73" stroke-width="0.9"/>
<path d="M8661.85 3537.68C8661.85 5910.27 6491.56 7833.73 3814.23 7833.73C1136.91 7833.73 -1033.38 5910.27 -1033.38 3537.68C-1033.38 1165.09 1136.91 -758.377 3814.23 -758.377C6491.56 -758.377 8661.85 1165.09 8661.85 3537.68Z" stroke="#A78B73"/>
<path d="M8659.94 3527.92C8659.94 5900.68 6489.5 7824.23 3812.07 7824.23C1134.64 7824.23 -1035.79 5900.68 -1035.79 3527.92C-1035.79 1155.17 1134.64 -768.379 3812.07 -768.379C6489.5 -768.379 8659.94 1155.17 8659.94 3527.92Z" stroke="#A78B73" stroke-width="0.5"/>
<path d="M8659.58 3526.3C8659.58 5899.06 6489.14 7822.61 3811.71 7822.61C1134.28 7822.61 -1036.15 5899.06 -1036.15 3526.3C-1036.15 1153.55 1134.28 -769.999 3811.71 -769.999C6489.14 -769.999 8659.58 1153.55 8659.58 3526.3Z" stroke="#A78B73" stroke-width="0.5"/>
<path d="M8660.99 3528.16C8660.99 5900.92 6490.56 7824.47 3813.13 7824.47C1135.7 7824.47 -1034.73 5900.92 -1034.73 3528.16C-1034.73 1155.41 1135.7 -768.14 3813.13 -768.14C6490.56 -768.14 8660.99 1155.41 8660.99 3528.16Z" stroke="#A78B73" stroke-width="0.5"/>
<path d="M8661.52 3529.25C8661.52 5902 6491.09 7825.55 3813.66 7825.55C1136.23 7825.55 -1034.2 5902 -1034.2 3529.25C-1034.2 1156.49 1136.23 -767.056 3813.66 -767.056C6491.09 -767.056 8661.52 1156.49 8661.52 3529.25Z" stroke="#A78B73" stroke-width="0.5"/>
<path d="M8662.96 3530.32C8662.96 5903.08 6492.52 7826.62 3815.09 7826.62C1137.66 7826.62 -1032.77 5903.08 -1032.77 3530.32C-1032.77 1157.57 1137.66 -765.982 3815.09 -765.982C6492.52 -765.982 8662.96 1157.57 8662.96 3530.32Z" stroke="#A78B73" stroke-width="0.5"/>
<path d="M8664.69 3530.32C8664.69 5903.01 6494.31 7826.52 3816.93 7826.52C1139.54 7826.52 -1030.84 5903.01 -1030.84 3530.32C-1030.84 1157.63 1139.54 -765.882 3816.93 -765.882C6494.31 -765.882 8664.69 1157.63 8664.69 3530.32Z" stroke="#A78B73" stroke-width="0.7"/>
<path d="M8666.7 3530.32C8666.7 5902.94 6496.38 7826.42 3819.04 7826.42C1141.69 7826.42 -1028.63 5902.94 -1028.63 3530.32C-1028.63 1157.7 1141.69 -765.782 3819.04 -765.782C6496.38 -765.782 8666.7 1157.7 8666.7 3530.32Z" stroke="#A78B73" stroke-width="0.9"/>
<path d="M8653.53 3528.92C8653.53 5901.51 6483.23 7824.97 3805.91 7824.97C1128.59 7824.97 -1041.7 5901.51 -1041.7 3528.92C-1041.7 1156.33 1128.59 -767.137 3805.91 -767.137C6483.23 -767.137 8653.53 1156.33 8653.53 3528.92Z" stroke="#A78B73"/>
<path d="M8651.61 3519.16C8651.61 5891.92 6481.18 7815.47 3803.75 7815.47C1126.32 7815.47 -1044.11 5891.92 -1044.11 3519.16C-1044.11 1146.41 1126.32 -777.139 3803.75 -777.139C6481.18 -777.139 8651.61 1146.41 8651.61 3519.16Z" stroke="#A78B73" stroke-width="0.5"/>
<path d="M8651.25 3517.54C8651.25 5890.3 6480.82 7813.85 3803.39 7813.85C1125.96 7813.85 -1044.47 5890.3 -1044.47 3517.54C-1044.47 1144.79 1125.96 -778.758 3803.39 -778.758C6480.82 -778.758 8651.25 1144.79 8651.25 3517.54Z" stroke="#A78B73" stroke-width="0.5"/>
<path d="M8652.67 3519.4C8652.67 5892.16 6482.24 7815.71 3804.81 7815.71C1127.38 7815.71 -1043.05 5892.16 -1043.05 3519.4C-1043.05 1146.65 1127.38 -776.899 3804.81 -776.899C6482.24 -776.899 8652.67 1146.65 8652.67 3519.4Z" stroke="#A78B73" stroke-width="0.5"/>
<path d="M8653.2 3520.49C8653.2 5893.24 6482.77 7816.79 3805.34 7816.79C1127.91 7816.79 -1042.53 5893.24 -1042.53 3520.49C-1042.53 1147.73 1127.91 -775.815 3805.34 -775.815C6482.77 -775.815 8653.2 1147.73 8653.2 3520.49Z" stroke="#A78B73" stroke-width="0.5"/>
<path d="M8654.63 3521.56C8654.63 5894.32 6484.2 7817.86 3806.77 7817.86C1129.34 7817.86 -1041.09 5894.32 -1041.09 3521.56C-1041.09 1148.81 1129.34 -774.742 3806.77 -774.742C6484.2 -774.742 8654.63 1148.81 8654.63 3521.56Z" stroke="#A78B73" stroke-width="0.5"/>
<path d="M8656.37 3521.56C8656.37 5894.25 6485.99 7817.76 3808.6 7817.76C1131.22 7817.76 -1039.16 5894.25 -1039.16 3521.56C-1039.16 1148.87 1131.22 -774.642 3808.6 -774.642C6485.99 -774.642 8656.37 1148.87 8656.37 3521.56Z" stroke="#A78B73" stroke-width="0.7"/>
<path d="M8658.38 3521.56C8658.38 5894.18 6488.06 7817.66 3810.71 7817.66C1133.37 7817.66 -1036.95 5894.18 -1036.95 3521.56C-1036.95 1148.94 1133.37 -774.542 3810.71 -774.542C6488.06 -774.542 8658.38 1148.94 8658.38 3521.56Z" stroke="#A78B73" stroke-width="0.9"/>
<path d="M8646.32 3518.92C8646.32 5891.51 6476.02 7814.98 3798.7 7814.98C1121.38 7814.98 -1048.91 5891.51 -1048.91 3518.92C-1048.91 1146.33 1121.38 -777.129 3798.7 -777.129C6476.02 -777.129 8646.32 1146.33 8646.32 3518.92Z" stroke="#A78B73"/>
<path d="M8644.4 3509.17C8644.4 5881.93 6473.97 7805.48 3796.54 7805.48C1119.11 7805.48 -1051.32 5881.93 -1051.32 3509.17C-1051.32 1136.42 1119.11 -787.131 3796.54 -787.131C6473.97 -787.131 8644.4 1136.42 8644.4 3509.17Z" stroke="#A78B73" stroke-width="0.5"/>
<path d="M8644.04 3507.55C8644.04 5880.31 6473.61 7803.86 3796.18 7803.86C1118.75 7803.86 -1051.68 5880.31 -1051.68 3507.55C-1051.68 1134.8 1118.75 -788.751 3796.18 -788.751C6473.61 -788.751 8644.04 1134.8 8644.04 3507.55Z" stroke="#A78B73" stroke-width="0.5"/>
<path d="M8645.46 3509.41C8645.46 5882.17 6475.03 7805.71 3797.6 7805.71C1120.17 7805.71 -1050.26 5882.17 -1050.26 3509.41C-1050.26 1136.66 1120.17 -786.892 3797.6 -786.892C6475.03 -786.892 8645.46 1136.66 8645.46 3509.41Z" stroke="#A78B73" stroke-width="0.5"/>
<path d="M8645.99 3510.5C8645.99 5883.25 6475.56 7806.8 3798.13 7806.8C1120.7 7806.8 -1049.73 5883.25 -1049.73 3510.5C-1049.73 1137.74 1120.7 -785.808 3798.13 -785.808C6475.56 -785.808 8645.99 1137.74 8645.99 3510.5Z" stroke="#A78B73" stroke-width="0.5"/>
<path d="M8647.42 3511.57C8647.42 5884.32 6476.99 7807.87 3799.56 7807.87C1122.13 7807.87 -1048.3 5884.32 -1048.3 3511.57C-1048.3 1138.81 1122.13 -784.735 3799.56 -784.735C6476.99 -784.735 8647.42 1138.81 8647.42 3511.57Z" stroke="#A78B73" stroke-width="0.5"/>
<path d="M8649.16 3511.57C8649.16 5884.26 6478.78 7807.77 3801.39 7807.77C1124.01 7807.77 -1046.37 5884.26 -1046.37 3511.57C-1046.37 1138.88 1124.01 -784.635 3801.39 -784.635C6478.78 -784.635 8649.16 1138.88 8649.16 3511.57Z" stroke="#A78B73" stroke-width="0.7"/>
<path d="M8651.17 3511.57C8651.17 5884.19 6480.85 7807.67 3803.5 7807.67C1126.16 7807.67 -1044.16 5884.19 -1044.16 3511.57C-1044.16 1138.95 1126.16 -784.535 3803.5 -784.535C6480.85 -784.535 8651.17 1138.95 8651.17 3511.57Z" stroke="#A78B73" stroke-width="0.9"/>
<path d="M8640.61 3507.84C8640.61 5880.43 6470.31 7803.89 3792.99 7803.89C1115.67 7803.89 -1054.62 5880.43 -1054.62 3507.84C-1054.62 1135.25 1115.67 -788.217 3792.99 -788.217C6470.31 -788.217 8640.61 1135.25 8640.61 3507.84Z" stroke="#A78B73"/>
<path d="M8638.69 3498.08C8638.69 5870.84 6468.26 7794.39 3790.83 7794.39C1113.4 7794.39 -1057.03 5870.84 -1057.03 3498.08C-1057.03 1125.33 1113.4 -798.219 3790.83 -798.219C6468.26 -798.219 8638.69 1125.33 8638.69 3498.08Z" stroke="#A78B73" stroke-width="0.5"/>
<path d="M8638.33 3496.46C8638.33 5869.22 6467.9 7792.77 3790.47 7792.77C1113.04 7792.77 -1057.39 5869.22 -1057.39 3496.46C-1057.39 1123.71 1113.04 -799.838 3790.47 -799.838C6467.9 -799.838 8638.33 1123.71 8638.33 3496.46Z" stroke="#A78B73" stroke-width="0.5"/>
<path d="M8639.75 3498.32C8639.75 5871.08 6469.32 7794.63 3791.89 7794.63C1114.46 7794.63 -1055.97 5871.08 -1055.97 3498.32C-1055.97 1125.57 1114.46 -797.979 3791.89 -797.979C6469.32 -797.979 8639.75 1125.57 8639.75 3498.32Z" stroke="#A78B73" stroke-width="0.5"/>
<path d="M8640.28 3499.41C8640.28 5872.16 6469.85 7795.71 3792.42 7795.71C1114.99 7795.71 -1055.45 5872.16 -1055.45 3499.41C-1055.45 1126.65 1114.99 -796.896 3792.42 -796.896C6469.85 -796.896 8640.28 1126.65 8640.28 3499.41Z" stroke="#A78B73" stroke-width="0.5"/>
<path d="M8641.71 3500.48C8641.71 5873.24 6471.28 7796.78 3793.85 7796.78C1116.42 7796.78 -1054.01 5873.24 -1054.01 3500.48C-1054.01 1127.73 1116.42 -795.823 3793.85 -795.823C6471.28 -795.823 8641.71 1127.73 8641.71 3500.48Z" stroke="#A78B73" stroke-width="0.5"/>
<path d="M8643.45 3500.48C8643.45 5873.17 6473.07 7796.68 3795.68 7796.68C1118.3 7796.68 -1052.08 5873.17 -1052.08 3500.48C-1052.08 1127.79 1118.3 -795.723 3795.68 -795.723C6473.07 -795.723 8643.45 1127.79 8643.45 3500.48Z" stroke="#A78B73" stroke-width="0.7"/>
<path d="M8645.46 3500.48C8645.46 5873.1 6475.14 7796.58 3797.79 7796.58C1120.45 7796.58 -1049.87 5873.1 -1049.87 3500.48C-1049.87 1127.86 1120.45 -795.623 3797.79 -795.623C6475.14 -795.623 8645.46 1127.86 8645.46 3500.48Z" stroke="#A78B73" stroke-width="0.9"/>
<path d="M8632.57 3498.39C8632.57 5870.98 6462.28 7794.44 3784.96 7794.44C1107.64 7794.44 -1062.65 5870.98 -1062.65 3498.39C-1062.65 1125.8 1107.64 -797.662 3784.96 -797.662C6462.28 -797.662 8632.57 1125.8 8632.57 3498.39Z" stroke="#A78B73"/>
<path d="M8630.66 3488.64C8630.66 5861.39 6460.23 7784.94 3782.8 7784.94C1105.37 7784.94 -1065.07 5861.39 -1065.07 3488.64C-1065.07 1115.88 1105.37 -807.664 3782.8 -807.664C6460.23 -807.664 8630.66 1115.88 8630.66 3488.64Z" stroke="#A78B73" stroke-width="0.5"/>
<path d="M8630.3 3487.02C8630.3 5859.77 6459.87 7783.32 3782.44 7783.32C1105.01 7783.32 -1065.43 5859.77 -1065.43 3487.02C-1065.43 1114.26 1105.01 -809.284 3782.44 -809.284C6459.87 -809.284 8630.3 1114.26 8630.3 3487.02Z" stroke="#A78B73" stroke-width="0.5"/>
<path d="M8631.72 3488.88C8631.72 5861.63 6461.29 7785.18 3783.86 7785.18C1106.43 7785.18 -1064.01 5861.63 -1064.01 3488.88C-1064.01 1116.12 1106.43 -807.425 3783.86 -807.425C6461.29 -807.425 8631.72 1116.12 8631.72 3488.88Z" stroke="#A78B73" stroke-width="0.5"/>
<path d="M8632.25 3489.96C8632.25 5862.72 6461.81 7786.27 3784.38 7786.27C1106.95 7786.27 -1063.48 5862.72 -1063.48 3489.96C-1063.48 1117.21 1106.95 -806.341 3784.38 -806.341C6461.81 -806.341 8632.25 1117.21 8632.25 3489.96Z" stroke="#A78B73" stroke-width="0.5"/>
<path d="M8633.68 3491.04C8633.68 5863.79 6463.25 7787.34 3785.82 7787.34C1108.39 7787.34 -1062.05 5863.79 -1062.05 3491.04C-1062.05 1118.28 1108.39 -805.268 3785.82 -805.268C6463.25 -805.268 8633.68 1118.28 8633.68 3491.04Z" stroke="#A78B73" stroke-width="0.5"/>
<path d="M8635.41 3491.04C8635.41 5863.72 6465.04 7787.24 3787.65 7787.24C1110.26 7787.24 -1060.11 5863.72 -1060.11 3491.04C-1060.11 1118.35 1110.26 -805.168 3787.65 -805.168C6465.04 -805.168 8635.41 1118.35 8635.41 3491.04Z" stroke="#A78B73" stroke-width="0.7"/>
<path d="M8637.42 3491.04C8637.42 5863.66 6467.1 7787.14 3789.76 7787.14C1112.42 7787.14 -1057.9 5863.66 -1057.9 3491.04C-1057.9 1118.41 1112.42 -805.068 3789.76 -805.068C6467.1 -805.068 8637.42 1118.41 8637.42 3491.04Z" stroke="#A78B73" stroke-width="0.9"/>
<path d="M8624.25 3489.63C8624.25 5862.22 6453.96 7785.68 3776.64 7785.68C1099.32 7785.68 -1070.98 5862.22 -1070.98 3489.63C-1070.98 1117.04 1099.32 -806.422 3776.64 -806.422C6453.96 -806.422 8624.25 1117.04 8624.25 3489.63Z" stroke="#A78B73"/>
<path d="M8622.34 3479.88C8622.34 5852.63 6451.9 7776.18 3774.47 7776.18C1097.04 7776.18 -1073.39 5852.63 -1073.39 3479.88C-1073.39 1107.12 1097.04 -816.424 3774.47 -816.424C6451.9 -816.424 8622.34 1107.12 8622.34 3479.88Z" stroke="#A78B73" stroke-width="0.5"/>
<path d="M8621.98 3478.26C8621.98 5851.02 6451.55 7774.56 3774.12 7774.56C1096.69 7774.56 -1073.75 5851.02 -1073.75 3478.26C-1073.75 1105.5 1096.69 -818.043 3774.12 -818.043C6451.55 -818.043 8621.98 1105.5 8621.98 3478.26Z" stroke="#A78B73" stroke-width="0.5"/>
<path d="M8623.4 3480.12C8623.4 5852.87 6452.96 7776.42 3775.53 7776.42C1098.1 7776.42 -1072.33 5852.87 -1072.33 3480.12C-1072.33 1107.36 1098.1 -816.185 3775.53 -816.185C6452.96 -816.185 8623.4 1107.36 8623.4 3480.12Z" stroke="#A78B73" stroke-width="0.5"/>
<path d="M8623.93 3481.2C8623.93 5853.96 6453.49 7777.51 3776.06 7777.51C1098.63 7777.51 -1071.8 5853.96 -1071.8 3481.2C-1071.8 1108.45 1098.63 -815.101 3776.06 -815.101C6453.49 -815.101 8623.93 1108.45 8623.93 3481.2Z" stroke="#A78B73" stroke-width="0.5"/>
<path d="M8625.36 3482.28C8625.36 5855.03 6454.92 7778.58 3777.49 7778.58C1100.06 7778.58 -1070.37 5855.03 -1070.37 3482.28C-1070.37 1109.52 1100.06 -814.028 3777.49 -814.028C6454.92 -814.028 8625.36 1109.52 8625.36 3482.28Z" stroke="#A78B73" stroke-width="0.5"/>
<path d="M8627.09 3482.28C8627.09 5854.96 6456.71 7778.48 3779.33 7778.48C1101.94 7778.48 -1068.44 5854.96 -1068.44 3482.28C-1068.44 1109.59 1101.94 -813.928 3779.33 -813.928C6456.71 -813.928 8627.09 1109.59 8627.09 3482.28Z" stroke="#A78B73" stroke-width="0.7"/>
<path d="M8629.1 3482.28C8629.1 5854.9 6458.78 7778.38 3781.44 7778.38C1104.09 7778.38 -1066.23 5854.9 -1066.23 3482.28C-1066.23 1109.65 1104.09 -813.828 3781.44 -813.828C6458.78 -813.828 8629.1 1109.65 8629.1 3482.28Z" stroke="#A78B73" stroke-width="0.9"/>
<path d="M-8489.17 5008.56C-8489.17 2635.97 -6318.88 712.511 -3641.56 712.511C-964.235 712.511 1206.06 2635.97 1206.06 5008.56C1206.06 7381.15 -964.235 9304.62 -3641.56 9304.62C-6318.88 9304.62 -8489.17 7381.15 -8489.17 5008.56Z" stroke="#A78B73"/>
<path d="M-8487.26 5018.32C-8487.26 2645.56 -6316.82 722.013 -3639.39 722.013C-961.962 722.013 1208.47 2645.56 1208.47 5018.32C1208.47 7391.07 -961.962 9314.62 -3639.39 9314.62C-6316.82 9314.62 -8487.26 7391.07 -8487.26 5018.32Z" stroke="#A78B73" stroke-width="0.5"/>
<path d="M-8486.9 5019.94C-8486.9 2647.18 -6316.46 723.632 -3639.03 723.632C-961.603 723.632 1208.83 2647.18 1208.83 5019.94C1208.83 7392.69 -961.603 9316.24 -3639.03 9316.24C-6316.46 9316.24 -8486.9 7392.69 -8486.9 5019.94Z" stroke="#A78B73" stroke-width="0.5"/>
<path d="M-8488.31 5018.08C-8488.31 2645.32 -6317.88 721.773 -3640.45 721.773C-963.017 721.773 1207.42 2645.32 1207.42 5018.08C1207.42 7390.83 -963.017 9314.38 -3640.45 9314.38C-6317.88 9314.38 -8488.31 7390.83 -8488.31 5018.08Z" stroke="#A78B73" stroke-width="0.5"/>
<path d="M-8488.84 5016.99C-8488.84 2644.24 -6318.41 720.689 -3640.98 720.689C-963.548 720.689 1206.88 2644.24 1206.88 5016.99C1206.88 7389.75 -963.548 9313.3 -3640.98 9313.3C-6318.41 9313.3 -8488.84 7389.75 -8488.84 5016.99Z" stroke="#A78B73" stroke-width="0.5"/>
<path d="M-8490.27 5015.92C-8490.27 2643.16 -6319.84 719.616 -3642.41 719.616C-964.978 719.616 1205.46 2643.16 1205.46 5015.92C1205.46 7388.67 -964.978 9312.22 -3642.41 9312.22C-6319.84 9312.22 -8490.27 7388.67 -8490.27 5015.92Z" stroke="#A78B73" stroke-width="0.5"/>
<path d="M-8492.01 5015.92C-8492.01 2643.23 -6321.63 719.716 -3644.24 719.716C-966.857 719.716 1203.52 2643.23 1203.52 5015.92C1203.52 7388.61 -966.857 9312.12 -3644.24 9312.12C-6321.63 9312.12 -8492.01 7388.61 -8492.01 5015.92Z" stroke="#A78B73" stroke-width="0.7"/>
<path d="M-8494.02 5015.92C-8494.02 2643.3 -6323.7 719.816 -3646.35 719.816C-969.01 719.816 1201.31 2643.3 1201.31 5015.92C1201.31 7388.54 -969.01 9312.02 -3646.35 9312.02C-6323.7 9312.02 -8494.02 7388.54 -8494.02 5015.92Z" stroke="#A78B73" stroke-width="0.9"/>
<path d="M-8483.46 5019.65C-8483.46 2647.06 -6313.17 723.598 -3635.85 723.598C-958.524 723.598 1211.77 2647.06 1211.77 5019.65C1211.77 7392.24 -958.524 9315.7 -3635.85 9315.7C-6313.17 9315.7 -8483.46 7392.24 -8483.46 5019.65Z" stroke="#A78B73"/>
<path d="M-8481.54 5029.4C-8481.54 2656.65 -6311.11 733.1 -3633.68 733.1C-956.251 733.1 1214.18 2656.65 1214.18 5029.4C1214.18 7402.16 -956.251 9325.71 -3633.68 9325.71C-6311.11 9325.71 -8481.54 7402.16 -8481.54 5029.4Z" stroke="#A78B73" stroke-width="0.5"/>
<path d="M-8481.19 5031.02C-8481.19 2658.27 -6310.75 734.72 -3633.32 734.72C-955.892 734.72 1214.54 2658.27 1214.54 5031.02C1214.54 7403.78 -955.892 9327.33 -3633.32 9327.33C-6310.75 9327.33 -8481.19 7403.78 -8481.19 5031.02Z" stroke="#A78B73" stroke-width="0.5"/>
<path d="M-8482.6 5029.16C-8482.6 2656.41 -6312.17 732.86 -3634.74 732.86C-957.306 732.86 1213.13 2656.41 1213.13 5029.16C1213.13 7401.92 -957.306 9325.47 -3634.74 9325.47C-6312.17 9325.47 -8482.6 7401.92 -8482.6 5029.16Z" stroke="#A78B73" stroke-width="0.5"/>
<path d="M-8483.13 5028.08C-8483.13 2655.32 -6312.7 731.776 -3635.27 731.776C-957.837 731.776 1212.6 2655.32 1212.6 5028.08C1212.6 7400.83 -957.837 9324.38 -3635.27 9324.38C-6312.7 9324.38 -8483.13 7400.83 -8483.13 5028.08Z" stroke="#A78B73" stroke-width="0.5"/>
<path d="M-8484.56 5027.01C-8484.56 2654.25 -6314.13 730.704 -3636.7 730.704C-959.267 730.704 1211.17 2654.25 1211.17 5027.01C1211.17 7399.76 -959.267 9323.31 -3636.7 9323.31C-6314.13 9323.31 -8484.56 7399.76 -8484.56 5027.01Z" stroke="#A78B73" stroke-width="0.5"/>
<path d="M-8486.3 5027.01C-8486.3 2654.32 -6315.92 730.804 -3638.53 730.804C-961.146 730.804 1209.23 2654.32 1209.23 5027.01C1209.23 7399.7 -961.146 9323.21 -3638.53 9323.21C-6315.92 9323.21 -8486.3 7399.7 -8486.3 5027.01Z" stroke="#A78B73" stroke-width="0.7"/>
<path d="M-8488.31 5027.01C-8488.31 2654.38 -6317.99 730.904 -3640.64 730.904C-963.3 730.904 1207.02 2654.38 1207.02 5027.01C1207.02 7399.63 -963.3 9323.11 -3640.64 9323.11C-6317.99 9323.11 -8488.31 7399.63 -8488.31 5027.01Z" stroke="#A78B73" stroke-width="0.9"/>
<path d="M-8475.42 5029.1C-8475.42 2656.51 -6305.13 733.043 -3627.81 733.043C-950.485 733.043 1219.81 2656.51 1219.81 5029.1C1219.81 7401.69 -950.485 9325.15 -3627.81 9325.15C-6305.13 9325.15 -8475.42 7401.69 -8475.42 5029.1Z" stroke="#A78B73"/>
<path d="M-8473.51 5038.85C-8473.51 2666.09 -6303.08 742.545 -3625.65 742.545C-948.22 742.545 1222.21 2666.09 1222.21 5038.85C1222.21 7411.6 -948.22 9335.15 -3625.65 9335.15C-6303.08 9335.15 -8473.51 7411.6 -8473.51 5038.85Z" stroke="#A78B73" stroke-width="0.5"/>
<path d="M-8473.15 5040.47C-8473.15 2667.71 -6302.72 744.165 -3625.29 744.165C-947.861 744.165 1222.57 2667.71 1222.57 5040.47C1222.57 7413.22 -947.861 9336.77 -3625.29 9336.77C-6302.72 9336.77 -8473.15 7413.22 -8473.15 5040.47Z" stroke="#A78B73" stroke-width="0.5"/>
<path d="M-8474.57 5038.61C-8474.57 2665.85 -6304.14 742.306 -3626.71 742.306C-949.275 742.306 1221.16 2665.85 1221.16 5038.61C1221.16 7411.36 -949.275 9334.91 -3626.71 9334.91C-6304.14 9334.91 -8474.57 7411.36 -8474.57 5038.61Z" stroke="#A78B73" stroke-width="0.5"/>
<path d="M-8475.1 5037.52C-8475.1 2664.77 -6304.67 741.222 -3627.24 741.222C-949.806 741.222 1220.63 2664.77 1220.63 5037.52C1220.63 7410.28 -949.806 9333.83 -3627.24 9333.83C-6304.67 9333.83 -8475.1 7410.28 -8475.1 5037.52Z" stroke="#A78B73" stroke-width="0.5"/>
<path d="M-8476.53 5036.45C-8476.53 2663.7 -6306.1 740.149 -3628.67 740.149C-951.236 740.149 1219.2 2663.7 1219.2 5036.45C1219.2 7409.21 -951.236 9332.76 -3628.67 9332.76C-6306.1 9332.76 -8476.53 7409.21 -8476.53 5036.45Z" stroke="#A78B73" stroke-width="0.5"/>
<path d="M-8478.27 5036.45C-8478.27 2663.76 -6307.89 740.249 -3630.5 740.249C-953.115 740.249 1217.26 2663.76 1217.26 5036.45C1217.26 7409.14 -953.115 9332.66 -3630.5 9332.66C-6307.89 9332.66 -8478.27 7409.14 -8478.27 5036.45Z" stroke="#A78B73" stroke-width="0.7"/>
<path d="M-8480.27 5036.45C-8480.27 2663.83 -6309.95 740.35 -3632.61 740.35C-955.268 740.35 1215.05 2663.83 1215.05 5036.45C1215.05 7409.08 -955.268 9332.56 -3632.61 9332.56C-6309.95 9332.56 -8480.27 7409.08 -8480.27 5036.45Z" stroke="#A78B73" stroke-width="0.9"/>
<path d="M-8467.1 5037.86C-8467.1 2665.27 -6296.81 741.803 -3619.49 741.803C-942.165 741.803 1228.13 2665.27 1228.13 5037.86C1228.13 7410.45 -942.165 9333.91 -3619.49 9333.91C-6296.81 9333.91 -8467.1 7410.45 -8467.1 5037.86Z" stroke="#A78B73"/>
<path d="M-8465.19 5047.61C-8465.19 2674.85 -6294.75 751.305 -3617.32 751.305C-939.892 751.305 1230.54 2674.85 1230.54 5047.61C1230.54 7420.36 -939.892 9343.91 -3617.32 9343.91C-6294.75 9343.91 -8465.19 7420.36 -8465.19 5047.61Z" stroke="#A78B73" stroke-width="0.5"/>
<path d="M-8464.83 5049.23C-8464.83 2676.47 -6294.39 752.925 -3616.96 752.925C-939.533 752.925 1230.9 2676.47 1230.9 5049.23C1230.9 7421.98 -939.533 9345.53 -3616.96 9345.53C-6294.39 9345.53 -8464.83 7421.98 -8464.83 5049.23Z" stroke="#A78B73" stroke-width="0.5"/>
<path d="M-8466.25 5047.37C-8466.25 2674.61 -6295.81 751.065 -3618.38 751.065C-940.955 751.065 1229.48 2674.61 1229.48 5047.37C1229.48 7420.12 -940.955 9343.67 -3618.38 9343.67C-6295.81 9343.67 -8466.25 7420.12 -8466.25 5047.37Z" stroke="#A78B73" stroke-width="0.5"/>
<path d="M-8466.78 5046.28C-8466.78 2673.53 -6296.35 749.981 -3618.92 749.981C-941.486 749.981 1228.95 2673.53 1228.95 5046.28C1228.95 7419.04 -941.486 9342.59 -3618.92 9342.59C-6296.35 9342.59 -8466.78 7419.04 -8466.78 5046.28Z" stroke="#A78B73" stroke-width="0.5"/>
<path d="M-8468.21 5045.21C-8468.21 2672.46 -6297.78 748.909 -3620.35 748.909C-942.916 748.909 1227.52 2672.46 1227.52 5045.21C1227.52 7417.97 -942.916 9341.52 -3620.35 9341.52C-6297.78 9341.52 -8468.21 7417.97 -8468.21 5045.21Z" stroke="#A78B73" stroke-width="0.5"/>
<path d="M-8469.95 5045.21C-8469.95 2672.52 -6299.57 749.009 -3622.18 749.009C-944.795 749.009 1225.58 2672.52 1225.58 5045.21C1225.58 7417.9 -944.795 9341.42 -3622.18 9341.42C-6299.57 9341.42 -8469.95 7417.9 -8469.95 5045.21Z" stroke="#A78B73" stroke-width="0.7"/>
<path d="M-8471.95 5045.21C-8471.95 2672.59 -6301.63 749.109 -3624.29 749.109C-946.948 749.109 1223.37 2672.59 1223.37 5045.21C1223.37 7417.84 -946.948 9341.32 -3624.29 9341.32C-6301.63 9341.32 -8471.95 7417.84 -8471.95 5045.21Z" stroke="#A78B73" stroke-width="0.9"/>
<path d="M-8459.89 5047.85C-8459.89 2675.26 -6289.6 751.796 -3612.28 751.796C-934.954 751.796 1235.34 2675.26 1235.34 5047.85C1235.34 7420.44 -934.954 9343.9 -3612.28 9343.9C-6289.6 9343.9 -8459.89 7420.44 -8459.89 5047.85Z" stroke="#A78B73"/>
<path d="M-8457.98 5057.6C-8457.98 2684.85 -6287.55 761.298 -3610.12 761.298C-932.689 761.298 1237.74 2684.85 1237.74 5057.6C1237.74 7430.36 -932.689 9353.9 -3610.12 9353.9C-6287.55 9353.9 -8457.98 7430.36 -8457.98 5057.6Z" stroke="#A78B73" stroke-width="0.5"/>
<path d="M-8457.62 5059.22C-8457.62 2686.46 -6287.19 762.917 -3609.76 762.917C-932.33 762.917 1238.1 2686.46 1238.1 5059.22C1238.1 7431.98 -932.33 9355.52 -3609.76 9355.52C-6287.19 9355.52 -8457.62 7431.98 -8457.62 5059.22Z" stroke="#A78B73" stroke-width="0.5"/>
<path d="M-8459.04 5057.36C-8459.04 2684.61 -6288.6 761.059 -3611.17 761.059C-933.744 761.059 1236.69 2684.61 1236.69 5057.36C1236.69 7430.12 -933.744 9353.67 -3611.17 9353.67C-6288.6 9353.67 -8459.04 7430.12 -8459.04 5057.36Z" stroke="#A78B73" stroke-width="0.5"/>
<path d="M-8459.57 5056.28C-8459.57 2683.52 -6289.14 759.975 -3611.71 759.975C-934.275 759.975 1236.16 2683.52 1236.16 5056.28C1236.16 7429.03 -934.275 9352.58 -3611.71 9352.58C-6289.14 9352.58 -8459.57 7429.03 -8459.57 5056.28Z" stroke="#A78B73" stroke-width="0.5"/>
<path d="M-8461 5055.2C-8461 2682.45 -6290.56 758.901 -3613.13 758.901C-935.705 758.901 1234.73 2682.45 1234.73 5055.2C1234.73 7427.96 -935.705 9351.51 -3613.13 9351.51C-6290.56 9351.51 -8461 7427.96 -8461 5055.2Z" stroke="#A78B73" stroke-width="0.5"/>
<path d="M-8462.73 5055.2C-8462.73 2682.52 -6292.36 759.001 -3614.97 759.001C-937.584 759.001 1232.79 2682.52 1232.79 5055.2C1232.79 7427.89 -937.584 9351.41 -3614.97 9351.41C-6292.36 9351.41 -8462.73 7427.89 -8462.73 5055.2Z" stroke="#A78B73" stroke-width="0.7"/>
<path d="M-8464.74 5055.2C-8464.74 2682.58 -6294.42 759.102 -3617.08 759.102C-939.737 759.102 1230.58 2682.58 1230.58 5055.2C1230.58 7427.83 -939.737 9351.31 -3617.08 9351.31C-6294.42 9351.31 -8464.74 7427.83 -8464.74 5055.2Z" stroke="#A78B73" stroke-width="0.9"/>
<path d="M-8454.18 5058.94C-8454.18 2686.35 -6283.89 762.884 -3606.56 762.884C-929.243 762.884 1241.05 2686.35 1241.05 5058.94C1241.05 7431.53 -929.243 9354.99 -3606.56 9354.99C-6283.89 9354.99 -8454.18 7431.53 -8454.18 5058.94Z" stroke="#A78B73"/>
<path d="M-8452.27 5068.69C-8452.27 2695.93 -6281.84 772.386 -3604.41 772.386C-926.978 772.386 1243.46 2695.93 1243.46 5068.69C1243.46 7441.44 -926.978 9364.99 -3604.41 9364.99C-6281.84 9364.99 -8452.27 7441.44 -8452.27 5068.69Z" stroke="#A78B73" stroke-width="0.5"/>
<path d="M-8451.91 5070.31C-8451.91 2697.55 -6281.48 774.005 -3604.05 774.005C-926.619 774.005 1243.81 2697.55 1243.81 5070.31C1243.81 7443.06 -926.619 9366.61 -3604.05 9366.61C-6281.48 9366.61 -8451.91 7443.06 -8451.91 5070.31Z" stroke="#A78B73" stroke-width="0.5"/>
<path d="M-8453.33 5068.45C-8453.33 2695.69 -6282.89 772.146 -3605.46 772.146C-928.033 772.146 1242.4 2695.69 1242.4 5068.45C1242.4 7441.2 -928.033 9364.75 -3605.46 9364.75C-6282.89 9364.75 -8453.33 7441.2 -8453.33 5068.45Z" stroke="#A78B73" stroke-width="0.5"/>
<path d="M-8453.86 5067.37C-8453.86 2694.61 -6283.42 771.062 -3605.99 771.062C-928.564 771.062 1241.87 2694.61 1241.87 5067.37C1241.87 7440.12 -928.564 9363.67 -3605.99 9363.67C-6283.42 9363.67 -8453.86 7440.12 -8453.86 5067.37Z" stroke="#A78B73" stroke-width="0.5"/>
<path d="M-8455.29 5066.29C-8455.29 2693.54 -6284.85 769.989 -3607.42 769.989C-929.994 769.989 1240.44 2693.54 1240.44 5066.29C1240.44 7439.05 -929.994 9362.6 -3607.42 9362.6C-6284.85 9362.6 -8455.29 7439.05 -8455.29 5066.29Z" stroke="#A78B73" stroke-width="0.5"/>
<path d="M-8457.02 5066.29C-8457.02 2693.6 -6286.65 770.089 -3609.26 770.089C-931.873 770.089 1238.5 2693.6 1238.5 5066.29C1238.5 7438.98 -931.873 9362.5 -3609.26 9362.5C-6286.65 9362.5 -8457.02 7438.98 -8457.02 5066.29Z" stroke="#A78B73" stroke-width="0.7"/>
<path d="M-8459.03 5066.29C-8459.03 2693.67 -6288.71 770.189 -3611.37 770.189C-934.026 770.189 1236.29 2693.67 1236.29 5066.29C1236.29 7438.92 -934.026 9362.4 -3611.37 9362.4C-6288.71 9362.4 -8459.03 7438.92 -8459.03 5066.29Z" stroke="#A78B73" stroke-width="0.9"/>
<path d="M-8446.15 5068.38C-8446.15 2695.79 -6275.85 772.329 -3598.53 772.329C-921.212 772.329 1249.08 2695.79 1249.08 5068.38C1249.08 7440.97 -921.212 9364.44 -3598.53 9364.44C-6275.85 9364.44 -8446.15 7440.97 -8446.15 5068.38Z" stroke="#A78B73"/>
<path d="M-8444.23 5078.13C-8444.23 2705.38 -6273.8 781.831 -3596.37 781.831C-918.939 781.831 1251.49 2705.38 1251.49 5078.13C1251.49 7450.89 -918.939 9374.44 -3596.37 9374.44C-6273.8 9374.44 -8444.23 7450.89 -8444.23 5078.13Z" stroke="#A78B73" stroke-width="0.5"/>
<path d="M-8443.87 5079.75C-8443.87 2707 -6273.44 783.45 -3596.01 783.45C-918.58 783.45 1251.85 2707 1251.85 5079.75C1251.85 7452.51 -918.58 9376.06 -3596.01 9376.06C-6273.44 9376.06 -8443.87 7452.51 -8443.87 5079.75Z" stroke="#A78B73" stroke-width="0.5"/>
<path d="M-8445.29 5077.9C-8445.29 2705.14 -6274.86 781.592 -3597.43 781.592C-920.001 781.592 1250.43 2705.14 1250.43 5077.9C1250.43 7450.65 -920.001 9374.2 -3597.43 9374.2C-6274.86 9374.2 -8445.29 7450.65 -8445.29 5077.9Z" stroke="#A78B73" stroke-width="0.5"/>
<path d="M-8445.83 5076.81C-8445.83 2704.06 -6275.39 780.508 -3597.96 780.508C-920.533 780.508 1249.9 2704.06 1249.9 5076.81C1249.9 7449.57 -920.533 9373.11 -3597.96 9373.11C-6275.39 9373.11 -8445.83 7449.57 -8445.83 5076.81Z" stroke="#A78B73" stroke-width="0.5"/>
<path d="M-8447.26 5075.74C-8447.26 2702.98 -6276.82 779.435 -3599.39 779.435C-921.962 779.435 1248.47 2702.98 1248.47 5075.74C1248.47 7448.49 -921.962 9372.04 -3599.39 9372.04C-6276.82 9372.04 -8447.26 7448.49 -8447.26 5075.74Z" stroke="#A78B73" stroke-width="0.5"/>
<path d="M-8448.99 5075.74C-8448.99 2703.05 -6278.62 779.534 -3601.23 779.534C-923.842 779.534 1246.53 2703.05 1246.53 5075.74C1246.53 7448.43 -923.842 9371.94 -3601.23 9371.94C-6278.62 9371.94 -8448.99 7448.43 -8448.99 5075.74Z" stroke="#A78B73" stroke-width="0.7"/>
<path d="M-8451 5075.74C-8451 2703.12 -6280.68 779.635 -3603.34 779.635C-925.995 779.635 1244.33 2703.12 1244.33 5075.74C1244.33 7448.36 -925.995 9371.84 -3603.34 9371.84C-6280.68 9371.84 -8451 7448.36 -8451 5075.74Z" stroke="#A78B73" stroke-width="0.9"/>
<path d="M-8437.83 5077.14C-8437.83 2704.55 -6267.53 781.089 -3590.21 781.089C-912.892 781.089 1257.4 2704.55 1257.4 5077.14C1257.4 7449.73 -912.892 9373.2 -3590.21 9373.2C-6267.53 9373.2 -8437.83 7449.73 -8437.83 5077.14Z" stroke="#A78B73"/>
<path d="M-8435.91 5086.89C-8435.91 2714.14 -6265.48 790.591 -3588.05 790.591C-910.619 790.591 1259.81 2714.14 1259.81 5086.89C1259.81 7459.65 -910.619 9383.2 -3588.05 9383.2C-6265.48 9383.2 -8435.91 7459.65 -8435.91 5086.89Z" stroke="#A78B73" stroke-width="0.5"/>
<path d="M-8435.55 5088.51C-8435.55 2715.76 -6265.12 792.21 -3587.69 792.21C-910.259 792.21 1260.17 2715.76 1260.17 5088.51C1260.17 7461.27 -910.259 9384.82 -3587.69 9384.82C-6265.12 9384.82 -8435.55 7461.27 -8435.55 5088.51Z" stroke="#A78B73" stroke-width="0.5"/>
<path d="M-8436.97 5086.65C-8436.97 2713.9 -6266.54 790.352 -3589.11 790.352C-911.681 790.352 1258.75 2713.9 1258.75 5086.65C1258.75 7459.41 -911.681 9382.96 -3589.11 9382.96C-6266.54 9382.96 -8436.97 7459.41 -8436.97 5086.65Z" stroke="#A78B73" stroke-width="0.5"/>
<path d="M-8437.5 5085.57C-8437.5 2712.82 -6267.06 789.268 -3589.63 789.268C-912.205 789.268 1258.23 2712.82 1258.23 5085.57C1258.23 7458.33 -912.205 9381.87 -3589.63 9381.87C-6267.06 9381.87 -8437.5 7458.33 -8437.5 5085.57Z" stroke="#A78B73" stroke-width="0.5"/>
<path d="M-8438.94 5084.5C-8438.94 2711.74 -6268.5 788.194 -3591.07 788.194C-913.642 788.194 1256.79 2711.74 1256.79 5084.5C1256.79 7457.25 -913.642 9380.8 -3591.07 9380.8C-6268.5 9380.8 -8438.94 7457.25 -8438.94 5084.5Z" stroke="#A78B73" stroke-width="0.5"/>
<path d="M-8440.66 5084.5C-8440.66 2711.81 -6270.29 788.294 -3592.9 788.294C-915.514 788.294 1254.86 2711.81 1254.86 5084.5C1254.86 7457.19 -915.514 9380.7 -3592.9 9380.7C-6270.29 9380.7 -8440.66 7457.19 -8440.66 5084.5Z" stroke="#A78B73" stroke-width="0.7"/>
<path d="M-8442.67 5084.5C-8442.67 2711.88 -6272.35 788.395 -3595.01 788.395C-917.667 788.395 1252.65 2711.88 1252.65 5084.5C1252.65 7457.12 -917.667 9380.6 -3595.01 9380.6C-6272.35 9380.6 -8442.67 7457.12 -8442.67 5084.5Z" stroke="#A78B73" stroke-width="0.9"/>
<path d="M-8439.34 5096.35C-8439.34 2723.76 -6269.05 800.292 -3591.73 800.292C-914.407 800.292 1255.88 2723.76 1255.88 5096.35C1255.88 7468.93 -914.407 9392.4 -3591.73 9392.4C-6269.05 9392.4 -8439.34 7468.93 -8439.34 5096.35Z" stroke="#A78B73"/>
<path d="M-8437.44 5106.1C-8437.44 2733.34 -6267 809.794 -3589.57 809.794C-912.142 809.794 1258.29 2733.34 1258.29 5106.1C1258.29 7478.85 -912.142 9402.4 -3589.57 9402.4C-6267 9402.4 -8437.44 7478.85 -8437.44 5106.1Z" stroke="#A78B73" stroke-width="0.5"/>
<path d="M-8437.08 5107.72C-8437.08 2734.96 -6266.64 811.413 -3589.21 811.413C-911.783 811.413 1258.65 2734.96 1258.65 5107.72C1258.65 7480.47 -911.783 9404.02 -3589.21 9404.02C-6266.64 9404.02 -8437.08 7480.47 -8437.08 5107.72Z" stroke="#A78B73" stroke-width="0.5"/>
<path d="M-8438.49 5105.86C-8438.49 2733.1 -6268.06 809.555 -3590.63 809.555C-913.197 809.555 1257.24 2733.1 1257.24 5105.86C1257.24 7478.61 -913.197 9402.16 -3590.63 9402.16C-6268.06 9402.16 -8438.49 7478.61 -8438.49 5105.86Z" stroke="#A78B73" stroke-width="0.5"/>
<path d="M-8439.02 5104.77C-8439.02 2732.02 -6268.59 808.471 -3591.16 808.471C-913.728 808.471 1256.71 2732.02 1256.71 5104.77C1256.71 7477.53 -913.728 9401.08 -3591.16 9401.08C-6268.59 9401.08 -8439.02 7477.53 -8439.02 5104.77Z" stroke="#A78B73" stroke-width="0.5"/>
<path d="M-8440.45 5103.7C-8440.45 2730.95 -6270.02 807.397 -3592.59 807.397C-915.158 807.397 1255.28 2730.95 1255.28 5103.7C1255.28 7476.46 -915.158 9400 -3592.59 9400C-6270.02 9400 -8440.45 7476.46 -8440.45 5103.7Z" stroke="#A78B73" stroke-width="0.5"/>
<path d="M-8442.19 5103.7C-8442.19 2731.01 -6271.81 807.497 -3594.42 807.497C-917.037 807.497 1253.34 2731.01 1253.34 5103.7C1253.34 7476.39 -917.037 9399.9 -3594.42 9399.9C-6271.81 9399.9 -8442.19 7476.39 -8442.19 5103.7Z" stroke="#A78B73" stroke-width="0.7"/>
<path d="M-8444.2 5103.7C-8444.2 2731.08 -6273.88 807.598 -3596.53 807.598C-919.19 807.598 1251.13 2731.08 1251.13 5103.7C1251.13 7476.32 -919.19 9399.8 -3596.53 9399.8C-6273.88 9399.8 -8444.2 7476.32 -8444.2 5103.7Z" stroke="#A78B73" stroke-width="0.9"/>
<path d="M-8433.63 5107.43C-8433.63 2734.84 -6263.34 811.38 -3586.02 811.38C-908.696 811.38 1261.6 2734.84 1261.6 5107.43C1261.6 7480.02 -908.696 9403.49 -3586.02 9403.49C-6263.34 9403.49 -8433.63 7480.02 -8433.63 5107.43Z" stroke="#A78B73"/>
<path d="M-8431.72 5117.19C-8431.72 2744.43 -6261.29 820.882 -3583.86 820.882C-906.431 820.882 1264 2744.43 1264 5117.19C1264 7489.94 -906.431 9413.49 -3583.86 9413.49C-6261.29 9413.49 -8431.72 7489.94 -8431.72 5117.19Z" stroke="#A78B73" stroke-width="0.5"/>
<path d="M-8431.37 5118.8C-8431.37 2746.05 -6260.93 822.501 -3583.5 822.501C-906.072 822.501 1264.36 2746.05 1264.36 5118.8C1264.36 7491.56 -906.072 9415.11 -3583.5 9415.11C-6260.93 9415.11 -8431.37 7491.56 -8431.37 5118.8Z" stroke="#A78B73" stroke-width="0.5"/>
<path d="M-8432.78 5116.95C-8432.78 2744.19 -6262.35 820.643 -3584.92 820.643C-907.486 820.643 1262.95 2744.19 1262.95 5116.95C1262.95 7489.7 -907.486 9413.25 -3584.92 9413.25C-6262.35 9413.25 -8432.78 7489.7 -8432.78 5116.95Z" stroke="#A78B73" stroke-width="0.5"/>
<path d="M-8433.31 5115.86C-8433.31 2743.11 -6262.88 819.559 -3585.45 819.559C-908.017 819.559 1262.42 2743.11 1262.42 5115.86C1262.42 7488.62 -908.017 9412.17 -3585.45 9412.17C-6262.88 9412.17 -8433.31 7488.62 -8433.31 5115.86Z" stroke="#A78B73" stroke-width="0.5"/>
<path d="M-8434.74 5114.79C-8434.74 2742.03 -6264.31 818.485 -3586.88 818.485C-909.447 818.485 1260.99 2742.03 1260.99 5114.79C1260.99 7487.54 -909.447 9411.09 -3586.88 9411.09C-6264.31 9411.09 -8434.74 7487.54 -8434.74 5114.79Z" stroke="#A78B73" stroke-width="0.5"/>
<path d="M-8436.48 5114.79C-8436.48 2742.1 -6266.1 818.585 -3588.71 818.585C-911.326 818.585 1259.05 2742.1 1259.05 5114.79C1259.05 7487.48 -911.326 9410.99 -3588.71 9410.99C-6266.1 9410.99 -8436.48 7487.48 -8436.48 5114.79Z" stroke="#A78B73" stroke-width="0.7"/>
<path d="M-8438.49 5114.79C-8438.49 2742.17 -6268.17 818.686 -3590.82 818.686C-913.479 818.686 1256.84 2742.17 1256.84 5114.79C1256.84 7487.41 -913.479 9410.89 -3590.82 9410.89C-6268.17 9410.89 -8438.49 7487.41 -8438.49 5114.79Z" stroke="#A78B73" stroke-width="0.9"/>
<path d="M-8425.6 5116.88C-8425.6 2744.29 -6255.31 820.825 -3577.99 820.825C-900.665 820.825 1269.63 2744.29 1269.63 5116.88C1269.63 7489.47 -900.665 9412.93 -3577.99 9412.93C-6255.31 9412.93 -8425.6 7489.47 -8425.6 5116.88Z" stroke="#A78B73"/>
<path d="M-8423.69 5126.63C-8423.69 2753.88 -6253.25 830.327 -3575.82 830.327C-898.392 830.327 1272.04 2753.88 1272.04 5126.63C1272.04 7499.39 -898.392 9422.93 -3575.82 9422.93C-6253.25 9422.93 -8423.69 7499.39 -8423.69 5126.63Z" stroke="#A78B73" stroke-width="0.5"/>
<path d="M-8423.33 5128.25C-8423.33 2755.49 -6252.89 831.946 -3575.46 831.946C-898.033 831.946 1272.4 2755.49 1272.4 5128.25C1272.4 7501 -898.033 9424.55 -3575.46 9424.55C-6252.89 9424.55 -8423.33 7501 -8423.33 5128.25Z" stroke="#A78B73" stroke-width="0.5"/>
<path d="M-8424.75 5126.39C-8424.75 2753.64 -6254.31 830.088 -3576.88 830.088C-899.455 830.088 1270.98 2753.64 1270.98 5126.39C1270.98 7499.15 -899.455 9422.69 -3576.88 9422.69C-6254.31 9422.69 -8424.75 7499.15 -8424.75 5126.39Z" stroke="#A78B73" stroke-width="0.5"/>
<path d="M-8425.28 5125.31C-8425.28 2752.55 -6254.85 829.004 -3577.42 829.004C-899.986 829.004 1270.45 2752.55 1270.45 5125.31C1270.45 7498.06 -899.986 9421.61 -3577.42 9421.61C-6254.85 9421.61 -8425.28 7498.06 -8425.28 5125.31Z" stroke="#A78B73" stroke-width="0.5"/>
<path d="M-8426.71 5124.23C-8426.71 2751.48 -6256.28 827.931 -3578.85 827.931C-901.416 827.931 1269.02 2751.48 1269.02 5124.23C1269.02 7496.99 -901.416 9420.54 -3578.85 9420.54C-6256.28 9420.54 -8426.71 7496.99 -8426.71 5124.23Z" stroke="#A78B73" stroke-width="0.5"/>
<path d="M-8428.45 5124.23C-8428.45 2751.54 -6258.07 828.03 -3580.68 828.03C-903.295 828.03 1267.08 2751.54 1267.08 5124.23C1267.08 7496.92 -903.295 9420.44 -3580.68 9420.44C-6258.07 9420.44 -8428.45 7496.92 -8428.45 5124.23Z" stroke="#A78B73" stroke-width="0.7"/>
<path d="M-8430.45 5124.23C-8430.45 2751.61 -6260.13 828.131 -3582.79 828.131C-905.448 828.131 1264.87 2751.61 1264.87 5124.23C1264.87 7496.86 -905.448 9420.34 -3582.79 9420.34C-6260.13 9420.34 -8430.45 7496.86 -8430.45 5124.23Z" stroke="#A78B73" stroke-width="0.9"/>
<path d="M-8417.28 5125.64C-8417.28 2753.05 -6246.99 829.585 -3569.67 829.585C-892.345 829.585 1277.95 2753.05 1277.95 5125.64C1277.95 7498.23 -892.345 9421.69 -3569.67 9421.69C-6246.99 9421.69 -8417.28 7498.23 -8417.28 5125.64Z" stroke="#A78B73"/>
<path d="M-8415.37 5135.39C-8415.37 2762.63 -6244.93 839.087 -3567.5 839.087C-890.072 839.087 1280.36 2762.63 1280.36 5135.39C1280.36 7508.15 -890.072 9431.69 -3567.5 9431.69C-6244.93 9431.69 -8415.37 7508.15 -8415.37 5135.39Z" stroke="#A78B73" stroke-width="0.5"/>
<path d="M-8415.01 5137.01C-8415.01 2764.25 -6244.57 840.706 -3567.14 840.706C-889.712 840.706 1280.72 2764.25 1280.72 5137.01C1280.72 7509.76 -889.712 9433.31 -3567.14 9433.31C-6244.57 9433.31 -8415.01 7509.76 -8415.01 5137.01Z" stroke="#A78B73" stroke-width="0.5"/>
<path d="M-8416.43 5135.15C-8416.43 2762.4 -6245.99 838.848 -3568.56 838.848C-891.134 838.848 1279.3 2762.4 1279.3 5135.15C1279.3 7507.91 -891.134 9431.45 -3568.56 9431.45C-6245.99 9431.45 -8416.43 7507.91 -8416.43 5135.15Z" stroke="#A78B73" stroke-width="0.5"/>
<path d="M-8416.95 5134.07C-8416.95 2761.31 -6246.52 837.764 -3569.09 837.764C-891.658 837.764 1278.78 2761.31 1278.78 5134.07C1278.78 7506.82 -891.658 9430.37 -3569.09 9430.37C-6246.52 9430.37 -8416.95 7506.82 -8416.95 5134.07Z" stroke="#A78B73" stroke-width="0.5"/>
<path d="M-8418.39 5132.99C-8418.39 2760.24 -6247.96 836.69 -3570.53 836.69C-893.095 836.69 1277.34 2760.24 1277.34 5132.99C1277.34 7505.75 -893.095 9429.3 -3570.53 9429.3C-6247.96 9429.3 -8418.39 7505.75 -8418.39 5132.99Z" stroke="#A78B73" stroke-width="0.5"/>
<path d="M-8420.12 5132.99C-8420.12 2760.3 -6249.74 836.79 -3572.35 836.79C-894.967 836.79 1275.41 2760.3 1275.41 5132.99C1275.41 7505.68 -894.967 9429.2 -3572.35 9429.2C-6249.74 9429.2 -8420.12 7505.68 -8420.12 5132.99Z" stroke="#A78B73" stroke-width="0.7"/>
<path d="M-8422.13 5132.99C-8422.13 2760.37 -6251.81 836.891 -3574.46 836.891C-897.12 836.891 1273.2 2760.37 1273.2 5132.99C1273.2 7505.62 -897.12 9429.1 -3574.46 9429.1C-6251.81 9429.1 -8422.13 7505.62 -8422.13 5132.99Z" stroke="#A78B73" stroke-width="0.9"/>
<path d="M-8410.07 5135.63C-8410.07 2763.04 -6239.78 839.577 -3562.46 839.577C-885.134 839.577 1285.16 2763.04 1285.16 5135.63C1285.16 7508.22 -885.134 9431.68 -3562.46 9431.68C-6239.78 9431.68 -8410.07 7508.22 -8410.07 5135.63Z" stroke="#A78B73"/>
<path d="M-8408.15 5145.38C-8408.15 2772.63 -6237.72 849.079 -3560.29 849.079C-882.861 849.079 1287.57 2772.63 1287.57 5145.38C1287.57 7518.14 -882.861 9441.69 -3560.29 9441.69C-6237.72 9441.69 -8408.15 7518.14 -8408.15 5145.38Z" stroke="#A78B73" stroke-width="0.5"/>
<path d="M-8407.79 5147C-8407.79 2774.25 -6237.36 850.699 -3559.93 850.699C-882.501 850.699 1287.93 2774.25 1287.93 5147C1287.93 7519.76 -882.501 9443.31 -3559.93 9443.31C-6237.36 9443.31 -8407.79 7519.76 -8407.79 5147Z" stroke="#A78B73" stroke-width="0.5"/>
<path d="M-8409.22 5145.14C-8409.22 2772.39 -6238.78 848.84 -3561.35 848.84C-883.923 848.84 1286.51 2772.39 1286.51 5145.14C1286.51 7517.9 -883.923 9441.45 -3561.35 9441.45C-6238.78 9441.45 -8409.22 7517.9 -8409.22 5145.14Z" stroke="#A78B73" stroke-width="0.5"/>
<path d="M-8409.75 5144.06C-8409.75 2771.3 -6239.31 847.756 -3561.88 847.756C-884.455 847.756 1285.98 2771.3 1285.98 5144.06C1285.98 7516.81 -884.455 9440.36 -3561.88 9440.36C-6239.31 9440.36 -8409.75 7516.81 -8409.75 5144.06Z" stroke="#A78B73" stroke-width="0.5"/>
<path d="M-8411.18 5142.99C-8411.18 2770.23 -6240.74 846.683 -3563.31 846.683C-885.884 846.683 1284.55 2770.23 1284.55 5142.99C1284.55 7515.74 -885.884 9439.29 -3563.31 9439.29C-6240.74 9439.29 -8411.18 7515.74 -8411.18 5142.99Z" stroke="#A78B73" stroke-width="0.5"/>
<path d="M-8412.91 5142.99C-8412.91 2770.3 -6242.54 846.782 -3565.15 846.782C-887.764 846.782 1282.61 2770.3 1282.61 5142.99C1282.61 7515.67 -887.764 9439.19 -3565.15 9439.19C-6242.54 9439.19 -8412.91 7515.67 -8412.91 5142.99Z" stroke="#A78B73" stroke-width="0.7"/>
<path d="M-8414.92 5142.99C-8414.92 2770.36 -6244.6 846.883 -3567.26 846.883C-889.917 846.883 1280.4 2770.36 1280.4 5142.99C1280.4 7515.61 -889.917 9439.09 -3567.26 9439.09C-6244.6 9439.09 -8414.92 7515.61 -8414.92 5142.99Z" stroke="#A78B73" stroke-width="0.9"/>
<path d="M-8404.36 5146.72C-8404.36 2774.13 -6234.07 850.665 -3556.74 850.665C-879.423 850.665 1290.87 2774.13 1290.87 5146.72C1290.87 7519.31 -879.423 9442.77 -3556.74 9442.77C-6234.07 9442.77 -8404.36 7519.31 -8404.36 5146.72Z" stroke="#A78B73"/>
<path d="M-8402.44 5156.47C-8402.44 2783.71 -6232.01 860.167 -3554.58 860.167C-877.15 860.167 1293.28 2783.71 1293.28 5156.47C1293.28 7529.23 -877.15 9452.77 -3554.58 9452.77C-6232.01 9452.77 -8402.44 7529.23 -8402.44 5156.47Z" stroke="#A78B73" stroke-width="0.5"/>
<path d="M-8402.08 5158.09C-8402.08 2785.33 -6231.65 861.786 -3554.22 861.786C-876.791 861.786 1293.64 2785.33 1293.64 5158.09C1293.64 7530.84 -876.791 9454.39 -3554.22 9454.39C-6231.65 9454.39 -8402.08 7530.84 -8402.08 5158.09Z" stroke="#A78B73" stroke-width="0.5"/>
<path d="M-8403.51 5156.23C-8403.51 2783.48 -6233.07 859.928 -3555.64 859.928C-878.212 859.928 1292.22 2783.48 1292.22 5156.23C1292.22 7528.99 -878.212 9452.53 -3555.64 9452.53C-6233.07 9452.53 -8403.51 7528.99 -8403.51 5156.23Z" stroke="#A78B73" stroke-width="0.5"/>
<path d="M-8404.04 5155.15C-8404.04 2782.39 -6233.6 858.844 -3556.17 858.844C-878.744 858.844 1291.69 2782.39 1291.69 5155.15C1291.69 7527.9 -878.744 9451.45 -3556.17 9451.45C-6233.6 9451.45 -8404.04 7527.9 -8404.04 5155.15Z" stroke="#A78B73" stroke-width="0.5"/>
<path d="M-8405.47 5154.07C-8405.47 2781.32 -6235.03 857.771 -3557.6 857.771C-880.173 857.771 1290.26 2781.32 1290.26 5154.07C1290.26 7526.83 -880.173 9450.38 -3557.6 9450.38C-6235.03 9450.38 -8405.47 7526.83 -8405.47 5154.07Z" stroke="#A78B73" stroke-width="0.5"/>
<path d="M-8407.2 5154.07C-8407.2 2781.38 -6236.83 857.87 -3559.44 857.87C-882.053 857.87 1288.32 2781.38 1288.32 5154.07C1288.32 7526.76 -882.053 9450.28 -3559.44 9450.28C-6236.83 9450.28 -8407.2 7526.76 -8407.2 5154.07Z" stroke="#A78B73" stroke-width="0.7"/>
<path d="M-8409.21 5154.07C-8409.21 2781.45 -6238.89 857.971 -3561.55 857.971C-884.206 857.971 1286.11 2781.45 1286.11 5154.07C1286.11 7526.7 -884.206 9450.18 -3561.55 9450.18C-6238.89 9450.18 -8409.21 7526.7 -8409.21 5154.07Z" stroke="#A78B73" stroke-width="0.9"/>
<path d="M-8396.33 5156.16C-8396.33 2783.57 -6226.03 860.11 -3548.71 860.11C-871.392 860.11 1298.9 2783.57 1298.9 5156.16C1298.9 7528.75 -871.392 9452.22 -3548.71 9452.22C-6226.03 9452.22 -8396.33 7528.75 -8396.33 5156.16Z" stroke="#A78B73"/>
<path d="M-8394.41 5165.92C-8394.41 2793.16 -6223.98 869.612 -3546.55 869.612C-869.119 869.612 1301.31 2793.16 1301.31 5165.92C1301.31 7538.67 -869.119 9462.22 -3546.55 9462.22C-6223.98 9462.22 -8394.41 7538.67 -8394.41 5165.92Z" stroke="#A78B73" stroke-width="0.5"/>
<path d="M-8394.05 5167.53C-8394.05 2794.78 -6223.62 871.231 -3546.19 871.231C-868.759 871.231 1301.67 2794.78 1301.67 5167.53C1301.67 7540.29 -868.759 9463.84 -3546.19 9463.84C-6223.62 9463.84 -8394.05 7540.29 -8394.05 5167.53Z" stroke="#A78B73" stroke-width="0.5"/>
<path d="M-8395.47 5165.68C-8395.47 2792.92 -6225.04 869.373 -3547.61 869.373C-870.181 869.373 1300.25 2792.92 1300.25 5165.68C1300.25 7538.43 -870.181 9461.98 -3547.61 9461.98C-6225.04 9461.98 -8395.47 7538.43 -8395.47 5165.68Z" stroke="#A78B73" stroke-width="0.5"/>
<path d="M-8396 5164.59C-8396 2791.84 -6225.56 868.289 -3548.13 868.289C-870.705 868.289 1299.73 2791.84 1299.73 5164.59C1299.73 7537.35 -870.705 9460.9 -3548.13 9460.9C-6225.56 9460.9 -8396 7537.35 -8396 5164.59Z" stroke="#A78B73" stroke-width="0.5"/>
<path d="M-8397.44 5163.52C-8397.44 2790.76 -6227 867.216 -3549.57 867.216C-872.142 867.216 1298.29 2790.76 1298.29 5163.52C1298.29 7536.27 -872.142 9459.82 -3549.57 9459.82C-6227 9459.82 -8397.44 7536.27 -8397.44 5163.52Z" stroke="#A78B73" stroke-width="0.5"/>
<path d="M-8399.16 5163.52C-8399.16 2790.83 -6228.79 867.315 -3551.4 867.315C-874.014 867.315 1296.36 2790.83 1296.36 5163.52C1296.36 7536.21 -874.014 9459.72 -3551.4 9459.72C-6228.79 9459.72 -8399.16 7536.21 -8399.16 5163.52Z" stroke="#A78B73" stroke-width="0.7"/>
<path d="M-8401.17 5163.52C-8401.17 2790.9 -6230.85 867.416 -3553.51 867.416C-876.167 867.416 1294.15 2790.9 1294.15 5163.52C1294.15 7536.14 -876.167 9459.62 -3553.51 9459.62C-6230.85 9459.62 -8401.17 7536.14 -8401.17 5163.52Z" stroke="#A78B73" stroke-width="0.9"/>
<path d="M-8388.01 5164.92C-8388.01 2792.33 -6217.71 868.87 -3540.39 868.87C-863.071 868.87 1307.22 2792.33 1307.22 5164.92C1307.22 7537.51 -863.071 9460.98 -3540.39 9460.98C-6217.71 9460.98 -8388.01 7537.51 -8388.01 5164.92Z" stroke="#A78B73"/>
<path d="M-8386.09 5174.68C-8386.09 2801.92 -6215.66 878.372 -3538.23 878.372C-860.798 878.372 1309.63 2801.92 1309.63 5174.68C1309.63 7547.43 -860.798 9470.98 -3538.23 9470.98C-6215.66 9470.98 -8386.09 7547.43 -8386.09 5174.68Z" stroke="#A78B73" stroke-width="0.5"/>
<path d="M-8385.73 5176.29C-8385.73 2803.54 -6215.3 879.991 -3537.87 879.991C-860.439 879.991 1309.99 2803.54 1309.99 5176.29C1309.99 7549.05 -860.439 9472.6 -3537.87 9472.6C-6215.3 9472.6 -8385.73 7549.05 -8385.73 5176.29Z" stroke="#A78B73" stroke-width="0.5"/>
<path d="M-8387.15 5174.44C-8387.15 2801.68 -6216.71 878.133 -3539.28 878.133C-861.853 878.133 1308.58 2801.68 1308.58 5174.44C1308.58 7547.19 -861.853 9470.74 -3539.28 9470.74C-6216.71 9470.74 -8387.15 7547.19 -8387.15 5174.44Z" stroke="#A78B73" stroke-width="0.5"/>
<path d="M-8387.68 5173.35C-8387.68 2800.6 -6217.24 877.049 -3539.81 877.049C-862.384 877.049 1308.05 2800.6 1308.05 5173.35C1308.05 7546.11 -862.384 9469.66 -3539.81 9469.66C-6217.24 9469.66 -8387.68 7546.11 -8387.68 5173.35Z" stroke="#A78B73" stroke-width="0.5"/>
<path d="M-8389.11 5172.28C-8389.11 2799.52 -6218.67 875.976 -3541.24 875.976C-863.814 875.976 1306.62 2799.52 1306.62 5172.28C1306.62 7545.03 -863.814 9468.58 -3541.24 9468.58C-6218.67 9468.58 -8389.11 7545.03 -8389.11 5172.28Z" stroke="#A78B73" stroke-width="0.5"/>
<path d="M-8390.84 5172.28C-8390.84 2799.59 -6220.47 876.075 -3543.08 876.075C-865.693 876.075 1304.68 2799.59 1304.68 5172.28C1304.68 7544.97 -865.693 9468.48 -3543.08 9468.48C-6220.47 9468.48 -8390.84 7544.97 -8390.84 5172.28Z" stroke="#A78B73" stroke-width="0.7"/>
<path d="M-8392.85 5172.28C-8392.85 2799.66 -6222.53 876.176 -3545.19 876.176C-867.846 876.176 1302.47 2799.66 1302.47 5172.28C1302.47 7544.9 -867.846 9468.38 -3545.19 9468.38C-6222.53 9468.38 -8392.85 7544.9 -8392.85 5172.28Z" stroke="#A78B73" stroke-width="0.9"/>
<path d="M-1508.89 6999.64C-1508.89 9372.23 661.397 11295.7 3338.72 11295.7C6016.04 11295.7 8186.33 9372.23 8186.33 6999.64C8186.33 4627.05 6016.04 2703.58 3338.72 2703.58C661.397 2703.58 -1508.89 4627.05 -1508.89 6999.64Z" stroke="#A78B73"/>
<path d="M-1506.98 6989.89C-1506.98 9362.64 663.453 11286.2 3340.88 11286.2C6018.31 11286.2 8188.75 9362.64 8188.75 6989.89C8188.75 4617.13 6018.31 2693.58 3340.88 2693.58C663.453 2693.58 -1506.98 4617.13 -1506.98 6989.89Z" stroke="#A78B73" stroke-width="0.5"/>
<path d="M-1506.62 6988.27C-1506.62 9361.02 663.812 11284.6 3341.24 11284.6C6018.67 11284.6 8189.11 9361.02 8189.11 6988.27C8189.11 4615.51 6018.67 2691.96 3341.24 2691.96C663.812 2691.96 -1506.62 4615.51 -1506.62 6988.27Z" stroke="#A78B73" stroke-width="0.5"/>
<path d="M-1508.04 6990.12C-1508.04 9362.88 662.398 11286.4 3339.83 11286.4C6017.26 11286.4 8187.69 9362.88 8187.69 6990.12C8187.69 4617.37 6017.26 2693.82 3339.83 2693.82C662.398 2693.82 -1508.04 4617.37 -1508.04 6990.12Z" stroke="#A78B73" stroke-width="0.5"/>
<path d="M-1508.57 6991.21C-1508.57 9363.96 661.867 11287.5 3339.3 11287.5C6016.73 11287.5 8187.16 9363.96 8187.16 6991.21C8187.16 4618.45 6016.73 2694.91 3339.3 2694.91C661.867 2694.91 -1508.57 4618.45 -1508.57 6991.21Z" stroke="#A78B73" stroke-width="0.5"/>
<path d="M-1510 6992.28C-1510 9365.04 660.437 11288.6 3337.87 11288.6C6015.3 11288.6 8185.73 9365.04 8185.73 6992.28C8185.73 4619.53 6015.3 2695.98 3337.87 2695.98C660.437 2695.98 -1510 4619.53 -1510 6992.28Z" stroke="#A78B73" stroke-width="0.5"/>
<path d="M-1511.73 6992.28C-1511.73 9364.97 658.645 11288.5 3336.03 11288.5C6013.42 11288.5 8183.79 9364.97 8183.79 6992.28C8183.79 4619.59 6013.42 2696.08 3336.03 2696.08C658.645 2696.08 -1511.73 4619.59 -1511.73 6992.28Z" stroke="#A78B73" stroke-width="0.7"/>
<path d="M-1513.74 6992.28C-1513.74 9364.9 656.579 11288.4 3333.92 11288.4C6011.26 11288.4 8181.59 9364.9 8181.59 6992.28C8181.59 4619.66 6011.26 2696.18 3333.92 2696.18C656.579 2696.18 -1513.74 4619.66 -1513.74 6992.28Z" stroke="#A78B73" stroke-width="0.9"/>
<path d="M-1503.18 6988.55C-1503.18 9361.14 667.108 11284.6 3344.43 11284.6C6021.75 11284.6 8192.04 9361.14 8192.04 6988.55C8192.04 4615.96 6021.75 2692.5 3344.43 2692.5C667.108 2692.5 -1503.18 4615.96 -1503.18 6988.55Z" stroke="#A78B73"/>
<path d="M-1501.27 6978.8C-1501.27 9351.55 669.164 11275.1 3346.59 11275.1C6024.02 11275.1 8194.46 9351.55 8194.46 6978.8C8194.46 4606.04 6024.02 2682.5 3346.59 2682.5C669.164 2682.5 -1501.27 4606.04 -1501.27 6978.8Z" stroke="#A78B73" stroke-width="0.5"/>
<path d="M-1500.91 6977.18C-1500.91 9349.93 669.523 11273.5 3346.95 11273.5C6024.38 11273.5 8194.82 9349.93 8194.82 6977.18C8194.82 4604.42 6024.38 2680.88 3346.95 2680.88C669.523 2680.88 -1500.91 4604.42 -1500.91 6977.18Z" stroke="#A78B73" stroke-width="0.5"/>
<path d="M-1502.32 6979.04C-1502.32 9351.79 668.109 11275.3 3345.54 11275.3C6022.97 11275.3 8193.4 9351.79 8193.4 6979.04C8193.4 4606.28 6022.97 2682.73 3345.54 2682.73C668.109 2682.73 -1502.32 4606.28 -1502.32 6979.04Z" stroke="#A78B73" stroke-width="0.5"/>
<path d="M-1502.86 6980.12C-1502.86 9352.88 667.578 11276.4 3345.01 11276.4C6022.44 11276.4 8192.87 9352.88 8192.87 6980.12C8192.87 4607.37 6022.44 2683.82 3345.01 2683.82C667.578 2683.82 -1502.86 4607.37 -1502.86 6980.12Z" stroke="#A78B73" stroke-width="0.5"/>
<path d="M-1504.29 6981.19C-1504.29 9353.95 666.148 11277.5 3343.58 11277.5C6021.01 11277.5 8191.44 9353.95 8191.44 6981.19C8191.44 4608.44 6021.01 2684.89 3343.58 2684.89C666.148 2684.89 -1504.29 4608.44 -1504.29 6981.19Z" stroke="#A78B73" stroke-width="0.5"/>
<path d="M-1506.02 6981.19C-1506.02 9353.88 664.355 11277.4 3341.74 11277.4C6019.13 11277.4 8189.51 9353.88 8189.51 6981.19C8189.51 4608.51 6019.13 2684.99 3341.74 2684.99C664.355 2684.99 -1506.02 4608.51 -1506.02 6981.19Z" stroke="#A78B73" stroke-width="0.7"/>
<path d="M-1508.03 6981.19C-1508.03 9353.82 662.29 11277.3 3339.63 11277.3C6016.98 11277.3 8187.3 9353.82 8187.3 6981.19C8187.3 4608.57 6016.98 2685.09 3339.63 2685.09C662.29 2685.09 -1508.03 4608.57 -1508.03 6981.19Z" stroke="#A78B73" stroke-width="0.9"/>
<path d="M-1495.14 6979.11C-1495.14 9351.7 675.147 11275.2 3352.47 11275.2C6029.79 11275.2 8200.08 9351.7 8200.08 6979.11C8200.08 4606.52 6029.79 2683.05 3352.47 2683.05C675.147 2683.05 -1495.14 4606.52 -1495.14 6979.11Z" stroke="#A78B73"/>
<path d="M-1493.24 6969.35C-1493.24 9342.11 677.195 11265.7 3354.62 11265.7C6032.06 11265.7 8202.49 9342.11 8202.49 6969.35C8202.49 4596.6 6032.06 2673.05 3354.62 2673.05C677.195 2673.05 -1493.24 4596.6 -1493.24 6969.35Z" stroke="#A78B73" stroke-width="0.5"/>
<path d="M-1492.88 6967.73C-1492.88 9340.49 677.554 11264 3354.98 11264C6032.41 11264 8202.85 9340.49 8202.85 6967.73C8202.85 4594.98 6032.41 2671.43 3354.98 2671.43C677.554 2671.43 -1492.88 4594.98 -1492.88 6967.73Z" stroke="#A78B73" stroke-width="0.5"/>
<path d="M-1494.29 6969.59C-1494.29 9342.35 676.14 11265.9 3353.57 11265.9C6031 11265.9 8201.43 9342.35 8201.43 6969.59C8201.43 4596.84 6031 2673.29 3353.57 2673.29C676.14 2673.29 -1494.29 4596.84 -1494.29 6969.59Z" stroke="#A78B73" stroke-width="0.5"/>
<path d="M-1494.82 6970.68C-1494.82 9343.43 675.609 11267 3353.04 11267C6030.47 11267 8200.9 9343.43 8200.9 6970.68C8200.9 4597.92 6030.47 2674.37 3353.04 2674.37C675.609 2674.37 -1494.82 4597.92 -1494.82 6970.68Z" stroke="#A78B73" stroke-width="0.5"/>
<path d="M-1496.25 6971.75C-1496.25 9344.5 674.179 11268.1 3351.61 11268.1C6029.04 11268.1 8199.47 9344.5 8199.47 6971.75C8199.47 4598.99 6029.04 2675.45 3351.61 2675.45C674.179 2675.45 -1496.25 4598.99 -1496.25 6971.75Z" stroke="#A78B73" stroke-width="0.5"/>
<path d="M-1497.99 6971.75C-1497.99 9344.44 672.387 11268 3349.77 11268C6027.16 11268 8197.54 9344.44 8197.54 6971.75C8197.54 4599.06 6027.16 2675.55 3349.77 2675.55C672.387 2675.55 -1497.99 4599.06 -1497.99 6971.75Z" stroke="#A78B73" stroke-width="0.7"/>
<path d="M-1500 6971.75C-1500 9344.37 670.321 11267.9 3347.66 11267.9C6025.01 11267.9 8195.33 9344.37 8195.33 6971.75C8195.33 4599.13 6025.01 2675.65 3347.66 2675.65C670.321 2675.65 -1500 4599.13 -1500 6971.75Z" stroke="#A78B73" stroke-width="0.9"/>
<path d="M-1486.82 6970.35C-1486.82 9342.94 683.468 11266.4 3360.79 11266.4C6038.11 11266.4 8208.4 9342.94 8208.4 6970.35C8208.4 4597.76 6038.11 2674.29 3360.79 2674.29C683.468 2674.29 -1486.82 4597.76 -1486.82 6970.35Z" stroke="#A78B73"/>
<path d="M-1484.91 6960.59C-1484.91 9333.35 685.523 11256.9 3362.95 11256.9C6040.38 11256.9 8210.82 9333.35 8210.82 6960.59C8210.82 4587.84 6040.38 2664.29 3362.95 2664.29C685.523 2664.29 -1484.91 4587.84 -1484.91 6960.59Z" stroke="#A78B73" stroke-width="0.5"/>
<path d="M-1484.55 6958.97C-1484.55 9331.73 685.882 11255.3 3363.31 11255.3C6040.74 11255.3 8211.18 9331.73 8211.18 6958.97C8211.18 4586.22 6040.74 2662.67 3363.31 2662.67C685.882 2662.67 -1484.55 4586.22 -1484.55 6958.97Z" stroke="#A78B73" stroke-width="0.5"/>
<path d="M-1485.97 6960.83C-1485.97 9333.59 684.46 11257.1 3361.89 11257.1C6039.32 11257.1 8209.75 9333.59 8209.75 6960.83C8209.75 4588.08 6039.32 2664.53 3361.89 2664.53C684.46 2664.53 -1485.97 4588.08 -1485.97 6960.83Z" stroke="#A78B73" stroke-width="0.5"/>
<path d="M-1486.5 6961.92C-1486.5 9334.67 683.929 11258.2 3361.36 11258.2C6038.79 11258.2 8209.22 9334.67 8209.22 6961.92C8209.22 4589.16 6038.79 2665.61 3361.36 2665.61C683.929 2665.61 -1486.5 4589.16 -1486.5 6961.92Z" stroke="#A78B73" stroke-width="0.5"/>
<path d="M-1487.93 6962.99C-1487.93 9335.74 682.5 11259.3 3359.93 11259.3C6037.36 11259.3 8207.79 9335.74 8207.79 6962.99C8207.79 4590.23 6037.36 2666.69 3359.93 2666.69C682.5 2666.69 -1487.93 4590.23 -1487.93 6962.99Z" stroke="#A78B73" stroke-width="0.5"/>
<path d="M-1489.67 6962.99C-1489.67 9335.68 680.707 11259.2 3358.09 11259.2C6035.48 11259.2 8205.86 9335.68 8205.86 6962.99C8205.86 4590.3 6035.48 2666.79 3358.09 2666.79C680.707 2666.79 -1489.67 4590.3 -1489.67 6962.99Z" stroke="#A78B73" stroke-width="0.7"/>
<path d="M-1491.68 6962.99C-1491.68 9335.61 678.641 11259.1 3355.98 11259.1C6033.33 11259.1 8203.65 9335.61 8203.65 6962.99C8203.65 4590.37 6033.33 2666.89 3355.98 2666.89C678.641 2666.89 -1491.68 4590.37 -1491.68 6962.99Z" stroke="#A78B73" stroke-width="0.9"/>
<path d="M-1479.61 6960.35C-1479.61 9332.94 690.679 11256.4 3368 11256.4C6045.32 11256.4 8215.61 9332.94 8215.61 6960.35C8215.61 4587.76 6045.32 2664.3 3368 2664.3C690.679 2664.3 -1479.61 4587.76 -1479.61 6960.35Z" stroke="#A78B73"/>
<path d="M-1477.71 6950.6C-1477.71 9323.36 692.726 11246.9 3370.16 11246.9C6047.59 11246.9 8218.02 9323.36 8218.02 6950.6C8218.02 4577.85 6047.59 2654.3 3370.16 2654.3C692.726 2654.3 -1477.71 4577.85 -1477.71 6950.6Z" stroke="#A78B73" stroke-width="0.5"/>
<path d="M-1477.35 6948.98C-1477.35 9321.74 693.085 11245.3 3370.52 11245.3C6047.95 11245.3 8218.38 9321.74 8218.38 6948.98C8218.38 4576.23 6047.95 2652.68 3370.52 2652.68C693.085 2652.68 -1477.35 4576.23 -1477.35 6948.98Z" stroke="#A78B73" stroke-width="0.5"/>
<path d="M-1478.76 6950.84C-1478.76 9323.6 691.671 11247.1 3369.1 11247.1C6046.53 11247.1 8216.96 9323.6 8216.96 6950.84C8216.96 4578.08 6046.53 2654.54 3369.1 2654.54C691.671 2654.54 -1478.76 4578.08 -1478.76 6950.84Z" stroke="#A78B73" stroke-width="0.5"/>
<path d="M-1479.29 6951.92C-1479.29 9324.68 691.14 11248.2 3368.57 11248.2C6046 11248.2 8216.43 9324.68 8216.43 6951.92C8216.43 4579.17 6046 2655.62 3368.57 2655.62C691.14 2655.62 -1479.29 4579.17 -1479.29 6951.92Z" stroke="#A78B73" stroke-width="0.5"/>
<path d="M-1480.72 6953C-1480.72 9325.75 689.71 11249.3 3367.14 11249.3C6044.57 11249.3 8215 9325.75 8215 6953C8215 4580.24 6044.57 2656.69 3367.14 2656.69C689.71 2656.69 -1480.72 4580.24 -1480.72 6953Z" stroke="#A78B73" stroke-width="0.5"/>
<path d="M-1482.46 6953C-1482.46 9325.69 687.918 11249.2 3365.3 11249.2C6042.69 11249.2 8213.07 9325.69 8213.07 6953C8213.07 4580.31 6042.69 2656.79 3365.3 2656.79C687.918 2656.79 -1482.46 4580.31 -1482.46 6953Z" stroke="#A78B73" stroke-width="0.7"/>
<path d="M-1484.47 6953C-1484.47 9325.62 685.852 11249.1 3363.2 11249.1C6040.54 11249.1 8210.86 9325.62 8210.86 6953C8210.86 4580.37 6040.54 2656.89 3363.2 2656.89C685.852 2656.89 -1484.47 4580.37 -1484.47 6953Z" stroke="#A78B73" stroke-width="0.9"/>
<path d="M-1473.9 6949.26C-1473.9 9321.85 696.39 11245.3 3373.71 11245.3C6051.03 11245.3 8221.32 9321.85 8221.32 6949.26C8221.32 4576.68 6051.03 2653.21 3373.71 2653.21C696.39 2653.21 -1473.9 4576.68 -1473.9 6949.26Z" stroke="#A78B73"/>
<path d="M-1472 6939.51C-1472 9312.27 698.437 11235.8 3375.87 11235.8C6053.3 11235.8 8223.73 9312.27 8223.73 6939.51C8223.73 4566.76 6053.3 2643.21 3375.87 2643.21C698.437 2643.21 -1472 4566.76 -1472 6939.51Z" stroke="#A78B73" stroke-width="0.5"/>
<path d="M-1471.64 6937.89C-1471.64 9310.65 698.796 11234.2 3376.23 11234.2C6053.66 11234.2 8224.09 9310.65 8224.09 6937.89C8224.09 4565.14 6053.66 2641.59 3376.23 2641.59C698.796 2641.59 -1471.64 4565.14 -1471.64 6937.89Z" stroke="#A78B73" stroke-width="0.5"/>
<path d="M-1473.05 6939.75C-1473.05 9312.51 697.382 11236.1 3374.81 11236.1C6052.24 11236.1 8222.68 9312.51 8222.68 6939.75C8222.68 4567 6052.24 2643.45 3374.81 2643.45C697.382 2643.45 -1473.05 4567 -1473.05 6939.75Z" stroke="#A78B73" stroke-width="0.5"/>
<path d="M-1473.58 6940.84C-1473.58 9313.59 696.851 11237.1 3374.28 11237.1C6051.71 11237.1 8222.14 9313.59 8222.14 6940.84C8222.14 4568.08 6051.71 2644.53 3374.28 2644.53C696.851 2644.53 -1473.58 4568.08 -1473.58 6940.84Z" stroke="#A78B73" stroke-width="0.5"/>
<path d="M-1475.01 6941.91C-1475.01 9314.66 695.421 11238.2 3372.85 11238.2C6050.28 11238.2 8220.71 9314.66 8220.71 6941.91C8220.71 4569.15 6050.28 2645.61 3372.85 2645.61C695.421 2645.61 -1475.01 4569.15 -1475.01 6941.91Z" stroke="#A78B73" stroke-width="0.5"/>
<path d="M-1476.75 6941.91C-1476.75 9314.6 693.629 11238.1 3371.02 11238.1C6048.4 11238.1 8218.78 9314.6 8218.78 6941.91C8218.78 4569.22 6048.4 2645.71 3371.02 2645.71C693.629 2645.71 -1476.75 4569.22 -1476.75 6941.91Z" stroke="#A78B73" stroke-width="0.7"/>
<path d="M-1478.76 6941.91C-1478.76 9314.53 691.563 11238 3368.91 11238C6046.25 11238 8216.57 9314.53 8216.57 6941.91C8216.57 4569.29 6046.25 2645.81 3368.91 2645.81C691.563 2645.81 -1478.76 4569.29 -1478.76 6941.91Z" stroke="#A78B73" stroke-width="0.9"/>
<path d="M-1465.87 6939.82C-1465.87 9312.41 704.421 11235.9 3381.74 11235.9C6059.06 11235.9 8229.36 9312.41 8229.36 6939.82C8229.36 4567.23 6059.06 2643.77 3381.74 2643.77C704.421 2643.77 -1465.87 4567.23 -1465.87 6939.82Z" stroke="#A78B73"/>
<path d="M-1463.96 6930.07C-1463.96 9302.82 706.476 11226.4 3383.91 11226.4C6061.34 11226.4 8231.77 9302.82 8231.77 6930.07C8231.77 4557.31 6061.34 2633.76 3383.91 2633.76C706.476 2633.76 -1463.96 4557.31 -1463.96 6930.07Z" stroke="#A78B73" stroke-width="0.5"/>
<path d="M-1463.6 6928.45C-1463.6 9301.2 706.835 11224.8 3384.27 11224.8C6061.7 11224.8 8232.13 9301.2 8232.13 6928.45C8232.13 4555.69 6061.7 2632.15 3384.27 2632.15C706.835 2632.15 -1463.6 4555.69 -1463.6 6928.45Z" stroke="#A78B73" stroke-width="0.5"/>
<path d="M-1465.02 6930.31C-1465.02 9303.06 705.414 11226.6 3382.84 11226.6C6060.27 11226.6 8230.71 9303.06 8230.71 6930.31C8230.71 4557.55 6060.27 2634 3382.84 2634C705.414 2634 -1465.02 4557.55 -1465.02 6930.31Z" stroke="#A78B73" stroke-width="0.5"/>
<path d="M-1465.55 6931.39C-1465.55 9304.15 704.882 11227.7 3382.31 11227.7C6059.74 11227.7 8230.18 9304.15 8230.18 6931.39C8230.18 4558.64 6059.74 2635.09 3382.31 2635.09C704.882 2635.09 -1465.55 4558.64 -1465.55 6931.39Z" stroke="#A78B73" stroke-width="0.5"/>
<path d="M-1466.98 6932.46C-1466.98 9305.22 703.453 11228.8 3380.88 11228.8C6058.31 11228.8 8228.75 9305.22 8228.75 6932.46C8228.75 4559.71 6058.31 2636.16 3380.88 2636.16C703.453 2636.16 -1466.98 4559.71 -1466.98 6932.46Z" stroke="#A78B73" stroke-width="0.5"/>
<path d="M-1468.72 6932.46C-1468.72 9305.15 701.66 11228.7 3379.05 11228.7C6056.43 11228.7 8226.81 9305.15 8226.81 6932.46C8226.81 4559.77 6056.43 2636.26 3379.05 2636.26C701.66 2636.26 -1468.72 4559.77 -1468.72 6932.46Z" stroke="#A78B73" stroke-width="0.7"/>
<path d="M-1470.73 6932.46C-1470.73 9305.09 699.594 11228.6 3376.94 11228.6C6054.28 11228.6 8224.6 9305.09 8224.6 6932.46C8224.6 4559.84 6054.28 2636.36 3376.94 2636.36C699.594 2636.36 -1470.73 4559.84 -1470.73 6932.46Z" stroke="#A78B73" stroke-width="0.9"/>
<path d="M-1457.55 6931.06C-1457.55 9303.65 712.741 11227.1 3390.06 11227.1C6067.38 11227.1 8237.68 9303.65 8237.68 6931.06C8237.68 4558.47 6067.38 2635.01 3390.06 2635.01C712.741 2635.01 -1457.55 4558.47 -1457.55 6931.06Z" stroke="#A78B73"/>
<path d="M-1455.64 6921.31C-1455.64 9294.06 714.796 11217.6 3392.23 11217.6C6069.66 11217.6 8240.09 9294.06 8240.09 6921.31C8240.09 4548.55 6069.66 2625 3392.23 2625C714.796 2625 -1455.64 4548.55 -1455.64 6921.31Z" stroke="#A78B73" stroke-width="0.5"/>
<path d="M-1455.28 6919.69C-1455.28 9292.44 715.156 11216 3392.59 11216C6070.02 11216 8240.45 9292.44 8240.45 6919.69C8240.45 4546.93 6070.02 2623.39 3392.59 2623.39C715.156 2623.39 -1455.28 4546.93 -1455.28 6919.69Z" stroke="#A78B73" stroke-width="0.5"/>
<path d="M-1456.7 6921.55C-1456.7 9294.3 713.734 11217.9 3391.16 11217.9C6068.59 11217.9 8239.03 9294.3 8239.03 6921.55C8239.03 4548.79 6068.59 2625.24 3391.16 2625.24C713.734 2625.24 -1456.7 4548.79 -1456.7 6921.55Z" stroke="#A78B73" stroke-width="0.5"/>
<path d="M-1457.22 6922.63C-1457.22 9295.39 713.21 11218.9 3390.64 11218.9C6068.07 11218.9 8238.5 9295.39 8238.5 6922.63C8238.5 4549.88 6068.07 2626.33 3390.64 2626.33C713.21 2626.33 -1457.22 4549.88 -1457.22 6922.63Z" stroke="#A78B73" stroke-width="0.5"/>
<path d="M-1458.66 6923.7C-1458.66 9296.46 711.773 11220 3389.2 11220C6066.63 11220 8237.07 9296.46 8237.07 6923.7C8237.07 4550.95 6066.63 2627.4 3389.2 2627.4C711.773 2627.4 -1458.66 4550.95 -1458.66 6923.7Z" stroke="#A78B73" stroke-width="0.5"/>
<path d="M-1460.39 6923.7C-1460.39 9296.39 709.988 11219.9 3387.38 11219.9C6064.76 11219.9 8235.14 9296.39 8235.14 6923.7C8235.14 4551.02 6064.76 2627.5 3387.38 2627.5C709.988 2627.5 -1460.39 4551.02 -1460.39 6923.7Z" stroke="#A78B73" stroke-width="0.7"/>
<path d="M-1462.4 6923.7C-1462.4 9296.33 707.922 11219.8 3385.27 11219.8C6062.61 11219.8 8232.93 9296.33 8232.93 6923.7C8232.93 4551.08 6062.61 2627.6 3385.27 2627.6C707.922 2627.6 -1462.4 4551.08 -1462.4 6923.7Z" stroke="#A78B73" stroke-width="0.9"/>
<path d="M-1459.07 6911.86C-1459.07 9284.45 711.226 11207.9 3388.55 11207.9C6065.87 11207.9 8236.16 9284.45 8236.16 6911.86C8236.16 4539.27 6065.87 2615.8 3388.55 2615.8C711.226 2615.8 -1459.07 4539.27 -1459.07 6911.86Z" stroke="#A78B73"/>
<path d="M-1457.16 6902.1C-1457.16 9274.86 713.273 11198.4 3390.7 11198.4C6068.13 11198.4 8238.57 9274.86 8238.57 6902.1C8238.57 4529.35 6068.13 2605.8 3390.7 2605.8C713.273 2605.8 -1457.16 4529.35 -1457.16 6902.1Z" stroke="#A78B73" stroke-width="0.5"/>
<path d="M-1456.8 6900.49C-1456.8 9273.24 713.632 11196.8 3391.06 11196.8C6068.49 11196.8 8238.93 9273.24 8238.93 6900.49C8238.93 4527.73 6068.49 2604.18 3391.06 2604.18C713.632 2604.18 -1456.8 4527.73 -1456.8 6900.49Z" stroke="#A78B73" stroke-width="0.5"/>
<path d="M-1458.21 6902.34C-1458.21 9275.1 712.218 11198.6 3389.65 11198.6C6067.08 11198.6 8237.51 9275.1 8237.51 6902.34C8237.51 4529.59 6067.08 2606.04 3389.65 2606.04C712.218 2606.04 -1458.21 4529.59 -1458.21 6902.34Z" stroke="#A78B73" stroke-width="0.5"/>
<path d="M-1458.75 6903.43C-1458.75 9276.18 711.687 11199.7 3389.12 11199.7C6066.55 11199.7 8236.98 9276.18 8236.98 6903.43C8236.98 4530.67 6066.55 2607.12 3389.12 2607.12C711.687 2607.12 -1458.75 4530.67 -1458.75 6903.43Z" stroke="#A78B73" stroke-width="0.5"/>
<path d="M-1460.18 6904.5C-1460.18 9277.26 710.257 11200.8 3387.69 11200.8C6065.12 11200.8 8235.55 9277.26 8235.55 6904.5C8235.55 4531.75 6065.12 2608.2 3387.69 2608.2C710.257 2608.2 -1460.18 4531.75 -1460.18 6904.5Z" stroke="#A78B73" stroke-width="0.5"/>
<path d="M-1461.91 6904.5C-1461.91 9277.19 708.465 11200.7 3385.85 11200.7C6063.24 11200.7 8233.61 9277.19 8233.61 6904.5C8233.61 4531.81 6063.24 2608.3 3385.85 2608.3C708.465 2608.3 -1461.91 4531.81 -1461.91 6904.5Z" stroke="#A78B73" stroke-width="0.7"/>
<path d="M-1463.92 6904.5C-1463.92 9277.12 706.399 11200.6 3383.74 11200.6C6061.09 11200.6 8231.41 9277.12 8231.41 6904.5C8231.41 4531.88 6061.09 2608.4 3383.74 2608.4C706.399 2608.4 -1463.92 4531.88 -1463.92 6904.5Z" stroke="#A78B73" stroke-width="0.9"/>
<path d="M-1453.36 6900.77C-1453.36 9273.36 716.937 11196.8 3394.26 11196.8C6071.58 11196.8 8241.87 9273.36 8241.87 6900.77C8241.87 4528.18 6071.58 2604.72 3394.26 2604.72C716.937 2604.72 -1453.36 4528.18 -1453.36 6900.77Z" stroke="#A78B73"/>
<path d="M-1451.45 6891.02C-1451.45 9263.77 718.984 11187.3 3396.41 11187.3C6073.84 11187.3 8244.28 9263.77 8244.28 6891.02C8244.28 4518.26 6073.84 2594.71 3396.41 2594.71C718.984 2594.71 -1451.45 4518.26 -1451.45 6891.02Z" stroke="#A78B73" stroke-width="0.5"/>
<path d="M-1451.09 6889.4C-1451.09 9262.15 719.343 11185.7 3396.77 11185.7C6074.2 11185.7 8244.64 9262.15 8244.64 6889.4C8244.64 4516.64 6074.2 2593.09 3396.77 2593.09C719.343 2593.09 -1451.09 4516.64 -1451.09 6889.4Z" stroke="#A78B73" stroke-width="0.5"/>
<path d="M-1452.5 6891.26C-1452.5 9264.01 717.929 11187.6 3395.36 11187.6C6072.79 11187.6 8243.22 9264.01 8243.22 6891.26C8243.22 4518.5 6072.79 2594.95 3395.36 2594.95C717.929 2594.95 -1452.5 4518.5 -1452.5 6891.26Z" stroke="#A78B73" stroke-width="0.5"/>
<path d="M-1453.04 6892.34C-1453.04 9265.1 717.398 11188.6 3394.83 11188.6C6072.26 11188.6 8242.69 9265.1 8242.69 6892.34C8242.69 4519.58 6072.26 2596.04 3394.83 2596.04C717.398 2596.04 -1453.04 4519.58 -1453.04 6892.34Z" stroke="#A78B73" stroke-width="0.5"/>
<path d="M-1454.46 6893.41C-1454.46 9266.17 715.968 11189.7 3393.4 11189.7C6070.83 11189.7 8241.26 9266.17 8241.26 6893.41C8241.26 4520.66 6070.83 2597.11 3393.4 2597.11C715.968 2597.11 -1454.46 4520.66 -1454.46 6893.41Z" stroke="#A78B73" stroke-width="0.5"/>
<path d="M-1456.2 6893.41C-1456.2 9266.1 714.176 11189.6 3391.56 11189.6C6068.95 11189.6 8239.33 9266.1 8239.33 6893.41C8239.33 4520.72 6068.95 2597.21 3391.56 2597.21C714.176 2597.21 -1456.2 4520.72 -1456.2 6893.41Z" stroke="#A78B73" stroke-width="0.7"/>
<path d="M-1458.21 6893.41C-1458.21 9266.04 712.11 11189.5 3389.45 11189.5C6066.8 11189.5 8237.12 9266.04 8237.12 6893.41C8237.12 4520.79 6066.8 2597.31 3389.45 2597.31C712.11 2597.31 -1458.21 4520.79 -1458.21 6893.41Z" stroke="#A78B73" stroke-width="0.9"/>
<path d="M-1445.32 6891.32C-1445.32 9263.91 724.968 11187.4 3402.29 11187.4C6079.61 11187.4 8249.9 9263.91 8249.9 6891.32C8249.9 4518.73 6079.61 2595.27 3402.29 2595.27C724.968 2595.27 -1445.32 4518.73 -1445.32 6891.32Z" stroke="#A78B73"/>
<path d="M-1443.41 6881.57C-1443.41 9254.33 727.023 11177.9 3404.45 11177.9C6081.88 11177.9 8252.32 9254.33 8252.32 6881.57C8252.32 4508.82 6081.88 2585.27 3404.45 2585.27C727.023 2585.27 -1443.41 4508.82 -1443.41 6881.57Z" stroke="#A78B73" stroke-width="0.5"/>
<path d="M-1443.05 6879.95C-1443.05 9252.71 727.382 11176.3 3404.81 11176.3C6082.24 11176.3 8252.68 9252.71 8252.68 6879.95C8252.68 4507.2 6082.24 2583.65 3404.81 2583.65C727.382 2583.65 -1443.05 4507.2 -1443.05 6879.95Z" stroke="#A78B73" stroke-width="0.5"/>
<path d="M-1444.47 6881.81C-1444.47 9254.57 725.96 11178.1 3403.39 11178.1C6080.82 11178.1 8251.25 9254.57 8251.25 6881.81C8251.25 4509.06 6080.82 2585.51 3403.39 2585.51C725.96 2585.51 -1444.47 4509.06 -1444.47 6881.81Z" stroke="#A78B73" stroke-width="0.5"/>
<path d="M-1445 6882.89C-1445 9255.65 725.429 11179.2 3402.86 11179.2C6080.29 11179.2 8250.72 9255.65 8250.72 6882.89C8250.72 4510.14 6080.29 2586.59 3402.86 2586.59C725.429 2586.59 -1445 4510.14 -1445 6882.89Z" stroke="#A78B73" stroke-width="0.5"/>
<path d="M-1446.43 6883.97C-1446.43 9256.72 724 11180.3 3401.43 11180.3C6078.86 11180.3 8249.29 9256.72 8249.29 6883.97C8249.29 4511.21 6078.86 2587.66 3401.43 2587.66C724 2587.66 -1446.43 4511.21 -1446.43 6883.97Z" stroke="#A78B73" stroke-width="0.5"/>
<path d="M-1448.17 6883.97C-1448.17 9256.66 722.207 11180.2 3399.59 11180.2C6076.98 11180.2 8247.36 9256.66 8247.36 6883.97C8247.36 4511.28 6076.98 2587.76 3399.59 2587.76C722.207 2587.76 -1448.17 4511.28 -1448.17 6883.97Z" stroke="#A78B73" stroke-width="0.7"/>
<path d="M-1450.18 6883.97C-1450.18 9256.59 720.141 11180.1 3397.48 11180.1C6074.83 11180.1 8245.15 9256.59 8245.15 6883.97C8245.15 4511.34 6074.83 2587.86 3397.48 2587.86C720.141 2587.86 -1450.18 4511.34 -1450.18 6883.97Z" stroke="#A78B73" stroke-width="0.9"/>
<path d="M-1437 6882.56C-1437 9255.15 733.288 11178.6 3410.61 11178.6C6087.93 11178.6 8258.22 9255.15 8258.22 6882.56C8258.22 4509.97 6087.93 2586.51 3410.61 2586.51C733.288 2586.51 -1437 4509.97 -1437 6882.56Z" stroke="#A78B73"/>
<path d="M-1435.09 6872.81C-1435.09 9245.57 735.343 11169.1 3412.77 11169.1C6090.2 11169.1 8260.64 9245.57 8260.64 6872.81C8260.64 4500.06 6090.2 2576.51 3412.77 2576.51C735.343 2576.51 -1435.09 4500.06 -1435.09 6872.81Z" stroke="#A78B73" stroke-width="0.5"/>
<path d="M-1434.73 6871.19C-1434.73 9243.95 735.703 11167.5 3413.13 11167.5C6090.56 11167.5 8261 9243.95 8261 6871.19C8261 4498.44 6090.56 2574.89 3413.13 2574.89C735.703 2574.89 -1434.73 4498.44 -1434.73 6871.19Z" stroke="#A78B73" stroke-width="0.5"/>
<path d="M-1436.15 6873.05C-1436.15 9245.81 734.281 11169.4 3411.71 11169.4C6089.14 11169.4 8259.57 9245.81 8259.57 6873.05C8259.57 4500.3 6089.14 2576.75 3411.71 2576.75C734.281 2576.75 -1436.15 4500.3 -1436.15 6873.05Z" stroke="#A78B73" stroke-width="0.5"/>
<path d="M-1436.68 6874.13C-1436.68 9246.89 733.757 11170.4 3411.19 11170.4C6088.62 11170.4 8259.05 9246.89 8259.05 6874.13C8259.05 4501.38 6088.62 2577.83 3411.19 2577.83C733.757 2577.83 -1436.68 4501.38 -1436.68 6874.13Z" stroke="#A78B73" stroke-width="0.5"/>
<path d="M-1438.11 6875.21C-1438.11 9247.96 732.32 11171.5 3409.75 11171.5C6087.18 11171.5 8257.61 9247.96 8257.61 6875.21C8257.61 4502.45 6087.18 2578.9 3409.75 2578.9C732.32 2578.9 -1438.11 4502.45 -1438.11 6875.21Z" stroke="#A78B73" stroke-width="0.5"/>
<path d="M-1439.84 6875.21C-1439.84 9247.9 730.535 11171.4 3407.92 11171.4C6085.31 11171.4 8255.69 9247.9 8255.69 6875.21C8255.69 4502.52 6085.31 2579 3407.92 2579C730.535 2579 -1439.84 4502.52 -1439.84 6875.21Z" stroke="#A78B73" stroke-width="0.7"/>
<path d="M-1441.85 6875.21C-1441.85 9247.83 728.469 11171.3 3405.81 11171.3C6083.16 11171.3 8253.48 9247.83 8253.48 6875.21C8253.48 4502.59 6083.16 2579.1 3405.81 2579.1C728.469 2579.1 -1441.85 4502.59 -1441.85 6875.21Z" stroke="#A78B73" stroke-width="0.9"/>
<path d="M-1429.79 6872.57C-1429.79 9245.16 740.499 11168.6 3417.82 11168.6C6095.14 11168.6 8265.43 9245.16 8265.43 6872.57C8265.43 4499.98 6095.14 2576.52 3417.82 2576.52C740.499 2576.52 -1429.79 4499.98 -1429.79 6872.57Z" stroke="#A78B73"/>
<path d="M-1427.88 6862.82C-1427.88 9235.57 742.554 11159.1 3419.98 11159.1C6097.41 11159.1 8267.85 9235.57 8267.85 6862.82C8267.85 4490.06 6097.41 2566.52 3419.98 2566.52C742.554 2566.52 -1427.88 4490.06 -1427.88 6862.82Z" stroke="#A78B73" stroke-width="0.5"/>
<path d="M-1427.52 6861.2C-1427.52 9233.95 742.914 11157.5 3420.34 11157.5C6097.77 11157.5 8268.21 9233.95 8268.21 6861.2C8268.21 4488.44 6097.77 2564.9 3420.34 2564.9C742.914 2564.9 -1427.52 4488.44 -1427.52 6861.2Z" stroke="#A78B73" stroke-width="0.5"/>
<path d="M-1428.94 6863.06C-1428.94 9235.81 741.492 11159.4 3418.92 11159.4C6096.35 11159.4 8266.79 9235.81 8266.79 6863.06C8266.79 4490.3 6096.35 2566.76 3418.92 2566.76C741.492 2566.76 -1428.94 4490.3 -1428.94 6863.06Z" stroke="#A78B73" stroke-width="0.5"/>
<path d="M-1429.47 6864.14C-1429.47 9236.9 740.96 11160.4 3418.39 11160.4C6095.82 11160.4 8266.25 9236.9 8266.25 6864.14C8266.25 4491.39 6095.82 2567.84 3418.39 2567.84C740.96 2567.84 -1429.47 4491.39 -1429.47 6864.14Z" stroke="#A78B73" stroke-width="0.5"/>
<path d="M-1430.9 6865.22C-1430.9 9237.97 739.531 11161.5 3416.96 11161.5C6094.39 11161.5 8264.82 9237.97 8264.82 6865.22C8264.82 4492.46 6094.39 2568.91 3416.96 2568.91C739.531 2568.91 -1430.9 4492.46 -1430.9 6865.22Z" stroke="#A78B73" stroke-width="0.5"/>
<path d="M-1432.64 6865.22C-1432.64 9237.9 737.738 11161.4 3415.12 11161.4C6092.51 11161.4 8262.89 9237.9 8262.89 6865.22C8262.89 4492.53 6092.51 2569.01 3415.12 2569.01C737.738 2569.01 -1432.64 4492.53 -1432.64 6865.22Z" stroke="#A78B73" stroke-width="0.7"/>
<path d="M-1434.65 6865.22C-1434.65 9237.84 735.672 11161.3 3413.02 11161.3C6090.36 11161.3 8260.68 9237.84 8260.68 6865.22C8260.68 4492.59 6090.36 2569.11 3413.02 2569.11C735.672 2569.11 -1434.65 4492.59 -1434.65 6865.22Z" stroke="#A78B73" stroke-width="0.9"/>
<path d="M-1424.08 6861.48C-1424.08 9234.07 746.21 11157.5 3423.53 11157.5C6100.85 11157.5 8271.14 9234.07 8271.14 6861.48C8271.14 4488.89 6100.85 2565.43 3423.53 2565.43C746.21 2565.43 -1424.08 4488.89 -1424.08 6861.48Z" stroke="#A78B73"/>
<path d="M-1422.17 6851.73C-1422.17 9224.49 748.265 11148 3425.7 11148C6103.13 11148 8273.56 9224.49 8273.56 6851.73C8273.56 4478.98 6103.13 2555.43 3425.7 2555.43C748.265 2555.43 -1422.17 4478.98 -1422.17 6851.73Z" stroke="#A78B73" stroke-width="0.5"/>
<path d="M-1421.81 6850.11C-1421.81 9222.87 748.625 11146.4 3426.05 11146.4C6103.48 11146.4 8273.92 9222.87 8273.92 6850.11C8273.92 4477.36 6103.48 2553.81 3426.05 2553.81C748.625 2553.81 -1421.81 4477.36 -1421.81 6850.11Z" stroke="#A78B73" stroke-width="0.5"/>
<path d="M-1423.23 6851.97C-1423.23 9224.73 747.203 11148.3 3424.63 11148.3C6102.06 11148.3 8272.5 9224.73 8272.5 6851.97C8272.5 4479.22 6102.06 2555.67 3424.63 2555.67C747.203 2555.67 -1423.23 4479.22 -1423.23 6851.97Z" stroke="#A78B73" stroke-width="0.5"/>
<path d="M-1423.76 6853.05C-1423.76 9225.81 746.671 11149.4 3424.1 11149.4C6101.53 11149.4 8271.96 9225.81 8271.96 6853.05C8271.96 4480.3 6101.53 2556.75 3424.1 2556.75C746.671 2556.75 -1423.76 4480.3 -1423.76 6853.05Z" stroke="#A78B73" stroke-width="0.5"/>
<path d="M-1425.19 6854.13C-1425.19 9226.88 745.242 11150.4 3422.67 11150.4C6100.1 11150.4 8270.54 9226.88 8270.54 6854.13C8270.54 4481.37 6100.1 2557.82 3422.67 2557.82C745.242 2557.82 -1425.19 4481.37 -1425.19 6854.13Z" stroke="#A78B73" stroke-width="0.5"/>
<path d="M-1426.93 6854.13C-1426.93 9226.82 743.449 11150.3 3420.84 11150.3C6098.22 11150.3 8268.6 9226.82 8268.6 6854.13C8268.6 4481.44 6098.22 2557.92 3420.84 2557.92C743.449 2557.92 -1426.93 4481.44 -1426.93 6854.13Z" stroke="#A78B73" stroke-width="0.7"/>
<path d="M-1428.94 6854.13C-1428.94 9226.75 741.383 11150.2 3418.73 11150.2C6096.07 11150.2 8266.39 9226.75 8266.39 6854.13C8266.39 4481.51 6096.07 2558.02 3418.73 2558.02C741.383 2558.02 -1428.94 4481.51 -1428.94 6854.13Z" stroke="#A78B73" stroke-width="0.9"/>
<path d="M-1416.05 6852.04C-1416.05 9224.63 754.241 11148.1 3431.56 11148.1C6108.88 11148.1 8279.18 9224.63 8279.18 6852.04C8279.18 4479.45 6108.88 2555.98 3431.56 2555.98C754.241 2555.98 -1416.05 4479.45 -1416.05 6852.04Z" stroke="#A78B73"/>
<path d="M-1414.14 6842.29C-1414.14 9215.04 756.296 11138.6 3433.73 11138.6C6111.16 11138.6 8281.59 9215.04 8281.59 6842.29C8281.59 4469.53 6111.16 2545.98 3433.73 2545.98C756.296 2545.98 -1414.14 4469.53 -1414.14 6842.29Z" stroke="#A78B73" stroke-width="0.5"/>
<path d="M-1413.78 6840.67C-1413.78 9213.42 756.656 11137 3434.09 11137C6111.52 11137 8281.95 9213.42 8281.95 6840.67C8281.95 4467.91 6111.52 2544.36 3434.09 2544.36C756.656 2544.36 -1413.78 4467.91 -1413.78 6840.67Z" stroke="#A78B73" stroke-width="0.5"/>
<path d="M-1415.2 6842.53C-1415.2 9215.28 755.234 11138.8 3432.66 11138.8C6110.09 11138.8 8280.53 9215.28 8280.53 6842.53C8280.53 4469.77 6110.09 2546.22 3432.66 2546.22C755.234 2546.22 -1415.2 4469.77 -1415.2 6842.53Z" stroke="#A78B73" stroke-width="0.5"/>
<path d="M-1415.72 6843.61C-1415.72 9216.36 754.71 11139.9 3432.14 11139.9C6109.57 11139.9 8280 9216.36 8280 6843.61C8280 4470.85 6109.57 2547.31 3432.14 2547.31C754.71 2547.31 -1415.72 4470.85 -1415.72 6843.61Z" stroke="#A78B73" stroke-width="0.5"/>
<path d="M-1417.16 6844.68C-1417.16 9217.44 753.273 11141 3430.7 11141C6108.13 11141 8278.57 9217.44 8278.57 6844.68C8278.57 4471.93 6108.13 2548.38 3430.7 2548.38C753.273 2548.38 -1417.16 4471.93 -1417.16 6844.68Z" stroke="#A78B73" stroke-width="0.5"/>
<path d="M-1418.89 6844.68C-1418.89 9217.37 751.488 11140.9 3428.88 11140.9C6106.26 11140.9 8276.64 9217.37 8276.64 6844.68C8276.64 4471.99 6106.26 2548.48 3428.88 2548.48C751.488 2548.48 -1418.89 4471.99 -1418.89 6844.68Z" stroke="#A78B73" stroke-width="0.7"/>
<path d="M-1420.9 6844.68C-1420.9 9217.31 749.422 11140.8 3426.77 11140.8C6104.11 11140.8 8274.43 9217.31 8274.43 6844.68C8274.43 4472.06 6104.11 2548.58 3426.77 2548.58C749.422 2548.58 -1420.9 4472.06 -1420.9 6844.68Z" stroke="#A78B73" stroke-width="0.9"/>
<path d="M-1407.73 6843.28C-1407.73 9215.87 762.562 11139.3 3439.88 11139.3C6117.2 11139.3 8287.5 9215.87 8287.5 6843.28C8287.5 4470.69 6117.2 2547.23 3439.88 2547.23C762.562 2547.23 -1407.73 4470.69 -1407.73 6843.28Z" stroke="#A78B73"/>
<path d="M-1405.82 6833.53C-1405.82 9206.28 764.617 11129.8 3442.05 11129.8C6119.48 11129.8 8289.91 9206.28 8289.91 6833.53C8289.91 4460.77 6119.48 2537.22 3442.05 2537.22C764.617 2537.22 -1405.82 4460.77 -1405.82 6833.53Z" stroke="#A78B73" stroke-width="0.5"/>
<path d="M-1405.46 6831.91C-1405.46 9204.66 764.976 11128.2 3442.41 11128.2C6119.84 11128.2 8290.27 9204.66 8290.27 6831.91C8290.27 4459.15 6119.84 2535.6 3442.41 2535.6C764.976 2535.6 -1405.46 4459.15 -1405.46 6831.91Z" stroke="#A78B73" stroke-width="0.5"/>
<path d="M-1406.87 6833.77C-1406.87 9206.52 763.562 11130.1 3440.99 11130.1C6118.42 11130.1 8288.86 9206.52 8288.86 6833.77C8288.86 4461.01 6118.42 2537.46 3440.99 2537.46C763.562 2537.46 -1406.87 4461.01 -1406.87 6833.77Z" stroke="#A78B73" stroke-width="0.5"/>
<path d="M-1407.4 6834.85C-1407.4 9207.6 763.031 11131.2 3440.46 11131.2C6117.89 11131.2 8288.32 9207.6 8288.32 6834.85C8288.32 4462.09 6117.89 2538.55 3440.46 2538.55C763.031 2538.55 -1407.4 4462.09 -1407.4 6834.85Z" stroke="#A78B73" stroke-width="0.5"/>
<path d="M-1408.83 6835.92C-1408.83 9208.68 761.601 11132.2 3439.03 11132.2C6116.46 11132.2 8286.89 9208.68 8286.89 6835.92C8286.89 4463.17 6116.46 2539.62 3439.03 2539.62C761.601 2539.62 -1408.83 4463.17 -1408.83 6835.92Z" stroke="#A78B73" stroke-width="0.5"/>
<path d="M-1410.57 6835.92C-1410.57 9208.61 759.809 11132.1 3437.2 11132.1C6114.58 11132.1 8284.96 9208.61 8284.96 6835.92C8284.96 4463.23 6114.58 2539.72 3437.2 2539.72C759.809 2539.72 -1410.57 4463.23 -1410.57 6835.92Z" stroke="#A78B73" stroke-width="0.7"/>
<path d="M-1412.58 6835.92C-1412.58 9208.55 757.743 11132 3435.09 11132C6112.43 11132 8282.75 9208.55 8282.75 6835.92C8282.75 4463.3 6112.43 2539.82 3435.09 2539.82C757.743 2539.82 -1412.58 4463.3 -1412.58 6835.92Z" stroke="#A78B73" stroke-width="0.9"/>
</g>
<defs>
<clipPath id="clip0_31_21">
<rect width="1920" height="5488" fill="white" transform="translate(0.441406)"/>
</clipPath>
</defs>
</svg>
