<svg width="300" height="301" viewBox="0 0 300 301" fill="none" xmlns="http://www.w3.org/2000/svg">
<circle cx="149.6" cy="150.433" r="144.6" stroke="#00A480" stroke-width="10"/>
<path d="M85.5755 158.698V96.298L91.0475 101.962H71.3675V91.498H98.0555V158.698H85.5755Z" fill="white"/>
<path d="M110.522 158.698V150.346L137.21 125.002C139.45 122.89 141.114 121.034 142.202 119.434C143.29 117.834 143.994 116.362 144.314 115.018C144.698 113.61 144.89 112.298 144.89 111.082C144.89 108.01 143.834 105.642 141.722 103.978C139.61 102.25 136.506 101.386 132.41 101.386C129.146 101.386 126.17 101.962 123.482 103.114C120.858 104.266 118.586 106.026 116.666 108.394L107.93 101.674C110.554 98.154 114.074 95.434 118.49 93.514C122.97 91.53 127.962 90.538 133.466 90.538C138.33 90.538 142.554 91.338 146.138 92.938C149.786 94.474 152.57 96.682 154.49 99.562C156.474 102.442 157.466 105.866 157.466 109.834C157.466 112.01 157.178 114.186 156.602 116.362C156.026 118.474 154.938 120.714 153.338 123.082C151.738 125.45 149.402 128.106 146.33 131.05L123.386 152.842L120.794 148.138H160.058V158.698H110.522Z" fill="white"/>
<path d="M195.293 159.658C189.981 159.658 185.181 158.314 180.893 155.626C176.669 152.938 173.341 149.034 170.909 143.914C168.477 138.73 167.261 132.458 167.261 125.098C167.261 117.738 168.477 111.498 170.909 106.378C173.341 101.194 176.669 97.258 180.893 94.57C185.181 91.882 189.981 90.538 195.293 90.538C200.669 90.538 205.469 91.882 209.693 94.57C213.917 97.258 217.245 101.194 219.677 106.378C222.173 111.498 223.421 117.738 223.421 125.098C223.421 132.458 222.173 138.73 219.677 143.914C217.245 149.034 213.917 152.938 209.693 155.626C205.469 158.314 200.669 159.658 195.293 159.658ZM195.293 148.81C198.429 148.81 201.149 147.978 203.453 146.314C205.757 144.586 207.549 141.962 208.829 138.442C210.173 134.922 210.845 130.474 210.845 125.098C210.845 119.658 210.173 115.21 208.829 111.754C207.549 108.234 205.757 105.642 203.453 103.978C201.149 102.25 198.429 101.386 195.293 101.386C192.285 101.386 189.597 102.25 187.229 103.978C184.925 105.642 183.101 108.234 181.757 111.754C180.477 115.21 179.837 119.658 179.837 125.098C179.837 130.474 180.477 134.922 181.757 138.442C183.101 141.962 184.925 144.586 187.229 146.314C189.597 147.978 192.285 148.81 195.293 148.81Z" fill="white"/>
<path d="M35.8184 196.698V182.698H48.1984V196.698H45.6384V184.258L46.2384 184.898H37.7784L38.3784 184.258V196.698H35.8184Z" fill="white"/>
<path d="M57.786 196.838C56.9193 196.838 56.126 196.638 55.406 196.238C54.6993 195.838 54.1327 195.238 53.706 194.438C53.2927 193.625 53.086 192.598 53.086 191.358C53.086 190.105 53.286 189.078 53.686 188.278C54.0993 187.478 54.6593 186.885 55.366 186.498C56.0727 186.098 56.8793 185.898 57.786 185.898C58.8393 185.898 59.766 186.125 60.566 186.578C61.3794 187.031 62.0193 187.665 62.486 188.478C62.966 189.291 63.206 190.251 63.206 191.358C63.206 192.465 62.966 193.431 62.486 194.258C62.0193 195.071 61.3794 195.705 60.566 196.158C59.766 196.611 58.8393 196.838 57.786 196.838ZM51.866 200.578V186.018H54.246V188.538L54.166 191.378L54.366 194.218V200.578H51.866ZM57.506 194.698C58.106 194.698 58.6393 194.565 59.106 194.298C59.586 194.031 59.966 193.645 60.246 193.138C60.526 192.631 60.666 192.038 60.666 191.358C60.666 190.665 60.526 190.071 60.246 189.578C59.966 189.071 59.586 188.685 59.106 188.418C58.6393 188.151 58.106 188.018 57.506 188.018C56.906 188.018 56.366 188.151 55.886 188.418C55.406 188.685 55.026 189.071 54.746 189.578C54.466 190.071 54.326 190.665 54.326 191.358C54.326 192.038 54.466 192.631 54.746 193.138C55.026 193.645 55.406 194.031 55.886 194.298C56.366 194.565 56.906 194.698 57.506 194.698Z" fill="white"/>
<path d="M70.4541 196.838C69.3608 196.838 68.3875 196.605 67.5341 196.138C66.6808 195.658 66.0075 195.005 65.5141 194.178C65.0208 193.351 64.7741 192.411 64.7741 191.358C64.7741 190.291 65.0208 189.351 65.5141 188.538C66.0075 187.711 66.6808 187.065 67.5341 186.598C68.3875 186.131 69.3608 185.898 70.4541 185.898C71.5608 185.898 72.5408 186.131 73.3941 186.598C74.2608 187.065 74.9341 187.705 75.4141 188.518C75.9075 189.331 76.1541 190.278 76.1541 191.358C76.1541 192.411 75.9075 193.351 75.4141 194.178C74.9341 195.005 74.2608 195.658 73.3941 196.138C72.5408 196.605 71.5608 196.838 70.4541 196.838ZM70.4541 194.698C71.0675 194.698 71.6141 194.565 72.0941 194.298C72.5741 194.031 72.9475 193.645 73.2141 193.138C73.4941 192.631 73.6341 192.038 73.6341 191.358C73.6341 190.665 73.4941 190.071 73.2141 189.578C72.9475 189.071 72.5741 188.685 72.0941 188.418C71.6141 188.151 71.0741 188.018 70.4741 188.018C69.8608 188.018 69.3141 188.151 68.8341 188.418C68.3675 188.685 67.9941 189.071 67.7141 189.578C67.4341 190.071 67.2941 190.665 67.2941 191.358C67.2941 192.038 67.4341 192.631 67.7141 193.138C67.9941 193.645 68.3675 194.031 68.8341 194.298C69.3141 194.565 69.8541 194.698 70.4541 194.698Z" fill="white"/>
<path d="M83.6038 196.838C82.4172 196.838 81.3772 196.605 80.4838 196.138C79.6038 195.658 78.9172 195.005 78.4238 194.178C77.9438 193.351 77.7038 192.411 77.7038 191.358C77.7038 190.291 77.9372 189.351 78.4038 188.538C78.8838 187.711 79.5372 187.065 80.3638 186.598C81.2038 186.131 82.1572 185.898 83.2238 185.898C84.2638 185.898 85.1905 186.125 86.0038 186.578C86.8172 187.031 87.4572 187.671 87.9238 188.498C88.3905 189.325 88.6238 190.298 88.6238 191.418C88.6238 191.525 88.6172 191.645 88.6038 191.778C88.6038 191.911 88.5972 192.038 88.5838 192.158H79.6838V190.498H87.2638L86.2838 191.018C86.2972 190.405 86.1705 189.865 85.9038 189.398C85.6372 188.931 85.2705 188.565 84.8038 188.298C84.3505 188.031 83.8238 187.898 83.2238 187.898C82.6105 187.898 82.0705 188.031 81.6038 188.298C81.1505 188.565 80.7905 188.938 80.5238 189.418C80.2705 189.885 80.1438 190.438 80.1438 191.078V191.478C80.1438 192.118 80.2905 192.685 80.5838 193.178C80.8772 193.671 81.2905 194.051 81.8238 194.318C82.3572 194.585 82.9705 194.718 83.6638 194.718C84.2638 194.718 84.8038 194.625 85.2838 194.438C85.7638 194.251 86.1905 193.958 86.5638 193.558L87.9038 195.098C87.4238 195.658 86.8172 196.091 86.0838 196.398C85.3638 196.691 84.5372 196.838 83.6038 196.838Z" fill="white"/>
<path d="M99.0182 196.698L95.1582 191.578L97.1982 190.318L101.958 196.698H99.0182ZM91.3582 196.698V186.018H93.8582V196.698H91.3582ZM93.1182 192.418V190.338H96.7382V192.418H93.1182ZM97.4382 191.658L95.0982 191.378L99.0182 186.018H101.698L97.4382 191.658Z" fill="white"/>
<path d="M105.805 196.698V187.538L106.385 188.138H102.045V186.018H112.045V188.138H107.725L108.305 187.538V196.698H105.805Z" fill="white"/>
<path d="M118.149 196.838C117.056 196.838 116.083 196.605 115.229 196.138C114.376 195.658 113.703 195.005 113.209 194.178C112.716 193.351 112.469 192.411 112.469 191.358C112.469 190.291 112.716 189.351 113.209 188.538C113.703 187.711 114.376 187.065 115.229 186.598C116.083 186.131 117.056 185.898 118.149 185.898C119.256 185.898 120.236 186.131 121.089 186.598C121.956 187.065 122.629 187.705 123.109 188.518C123.603 189.331 123.849 190.278 123.849 191.358C123.849 192.411 123.603 193.351 123.109 194.178C122.629 195.005 121.956 195.658 121.089 196.138C120.236 196.605 119.256 196.838 118.149 196.838ZM118.149 194.698C118.763 194.698 119.309 194.565 119.789 194.298C120.269 194.031 120.643 193.645 120.909 193.138C121.189 192.631 121.329 192.038 121.329 191.358C121.329 190.665 121.189 190.071 120.909 189.578C120.643 189.071 120.269 188.685 119.789 188.418C119.309 188.151 118.769 188.018 118.169 188.018C117.556 188.018 117.009 188.151 116.529 188.418C116.063 188.685 115.689 189.071 115.409 189.578C115.129 190.071 114.989 190.665 114.989 191.358C114.989 192.038 115.129 192.631 115.409 193.138C115.689 193.645 116.063 194.031 116.529 194.298C117.009 194.565 117.549 194.698 118.149 194.698Z" fill="white"/>
<path d="M126.319 196.698V186.018H131.539C132.832 186.018 133.846 186.258 134.579 186.738C135.326 187.218 135.699 187.898 135.699 188.778C135.699 189.645 135.352 190.325 134.659 190.818C133.966 191.298 133.046 191.538 131.899 191.538L132.199 190.918C133.492 190.918 134.452 191.158 135.079 191.638C135.719 192.105 136.039 192.791 136.039 193.698C136.039 194.645 135.686 195.385 134.979 195.918C134.272 196.438 133.199 196.698 131.759 196.698H126.319ZM128.699 194.878H131.559C132.239 194.878 132.752 194.771 133.099 194.558C133.446 194.331 133.619 193.991 133.619 193.538C133.619 193.058 133.459 192.705 133.139 192.478C132.819 192.251 132.319 192.138 131.639 192.138H128.699V194.878ZM128.699 190.478H131.319C131.959 190.478 132.439 190.365 132.759 190.138C133.092 189.898 133.259 189.565 133.259 189.138C133.259 188.698 133.092 188.371 132.759 188.158C132.439 187.945 131.959 187.838 131.319 187.838H128.699V190.478Z" fill="white"/>
<path d="M144.229 196.698V186.018H149.449C150.743 186.018 151.756 186.258 152.489 186.738C153.236 187.218 153.609 187.898 153.609 188.778C153.609 189.645 153.263 190.325 152.569 190.818C151.876 191.298 150.956 191.538 149.809 191.538L150.109 190.918C151.403 190.918 152.363 191.158 152.989 191.638C153.629 192.105 153.949 192.791 153.949 193.698C153.949 194.645 153.596 195.385 152.889 195.918C152.183 196.438 151.109 196.698 149.669 196.698H144.229ZM146.609 194.878H149.469C150.149 194.878 150.663 194.771 151.009 194.558C151.356 194.331 151.529 193.991 151.529 193.538C151.529 193.058 151.369 192.705 151.049 192.478C150.729 192.251 150.229 192.138 149.549 192.138H146.609V194.878ZM146.609 190.478H149.229C149.869 190.478 150.349 190.365 150.669 190.138C151.003 189.898 151.169 189.565 151.169 189.138C151.169 188.698 151.003 188.371 150.669 188.158C150.349 187.945 149.869 187.838 149.229 187.838H146.609V190.478Z" fill="white"/>
<path d="M167.392 196.698V186.018H169.892V196.698H167.392ZM161.812 189.538C163.185 189.538 164.225 189.845 164.932 190.458C165.652 191.071 166.012 191.938 166.012 193.058C166.012 194.218 165.612 195.125 164.812 195.778C164.025 196.418 162.905 196.731 161.452 196.718L156.612 196.698V186.018H159.112V189.518L161.812 189.538ZM161.232 194.878C161.965 194.891 162.525 194.738 162.912 194.418C163.299 194.098 163.492 193.631 163.492 193.018C163.492 192.405 163.299 191.965 162.912 191.698C162.539 191.418 161.979 191.271 161.232 191.258L159.112 191.238V194.858L161.232 194.878Z" fill="white"/>
<path d="M173.253 196.698V186.018H183.493V196.698H181.013V187.558L181.593 188.138H175.173L175.753 187.558V196.698H173.253Z" fill="white"/>
<path d="M191.626 196.838C190.533 196.838 189.559 196.605 188.706 196.138C187.853 195.658 187.179 195.005 186.686 194.178C186.193 193.351 185.946 192.411 185.946 191.358C185.946 190.291 186.193 189.351 186.686 188.538C187.179 187.711 187.853 187.065 188.706 186.598C189.559 186.131 190.533 185.898 191.626 185.898C192.733 185.898 193.713 186.131 194.566 186.598C195.433 187.065 196.106 187.705 196.586 188.518C197.079 189.331 197.326 190.278 197.326 191.358C197.326 192.411 197.079 193.351 196.586 194.178C196.106 195.005 195.433 195.658 194.566 196.138C193.713 196.605 192.733 196.838 191.626 196.838ZM191.626 194.698C192.239 194.698 192.786 194.565 193.266 194.298C193.746 194.031 194.119 193.645 194.386 193.138C194.666 192.631 194.806 192.038 194.806 191.358C194.806 190.665 194.666 190.071 194.386 189.578C194.119 189.071 193.746 188.685 193.266 188.418C192.786 188.151 192.246 188.018 191.646 188.018C191.033 188.018 190.486 188.151 190.006 188.418C189.539 188.685 189.166 189.071 188.886 189.578C188.606 190.071 188.466 190.665 188.466 191.358C188.466 192.038 188.606 192.631 188.886 193.138C189.166 193.645 189.539 194.031 190.006 194.298C190.486 194.565 191.026 194.698 191.626 194.698Z" fill="white"/>
<path d="M198.119 196.678L198.239 194.578C198.332 194.591 198.419 194.605 198.499 194.618C198.579 194.631 198.652 194.638 198.719 194.638C199.132 194.638 199.452 194.511 199.679 194.258C199.905 194.005 200.072 193.665 200.179 193.238C200.299 192.798 200.379 192.311 200.419 191.778C200.472 191.231 200.512 190.685 200.539 190.138L200.719 186.018H209.359V196.698H206.859V187.458L207.439 188.138H202.359L202.899 187.438L202.759 190.258C202.719 191.205 202.639 192.085 202.519 192.898C202.412 193.698 202.239 194.398 201.999 194.998C201.772 195.598 201.452 196.065 201.039 196.398C200.639 196.731 200.125 196.898 199.499 196.898C199.299 196.898 199.079 196.878 198.839 196.838C198.612 196.798 198.372 196.745 198.119 196.678Z" fill="white"/>
<path d="M212.725 196.698V186.018H215.225V190.358H220.605V186.018H223.105V196.698H220.605V192.478H215.225V196.698H212.725Z" fill="white"/>
<path d="M231.436 196.838C230.249 196.838 229.209 196.605 228.316 196.138C227.436 195.658 226.749 195.005 226.256 194.178C225.776 193.351 225.536 192.411 225.536 191.358C225.536 190.291 225.769 189.351 226.236 188.538C226.716 187.711 227.369 187.065 228.196 186.598C229.036 186.131 229.989 185.898 231.056 185.898C232.096 185.898 233.023 186.125 233.836 186.578C234.649 187.031 235.289 187.671 235.756 188.498C236.223 189.325 236.456 190.298 236.456 191.418C236.456 191.525 236.449 191.645 236.436 191.778C236.436 191.911 236.429 192.038 236.416 192.158H227.516V190.498H235.096L234.116 191.018C234.129 190.405 234.003 189.865 233.736 189.398C233.469 188.931 233.103 188.565 232.636 188.298C232.183 188.031 231.656 187.898 231.056 187.898C230.443 187.898 229.903 188.031 229.436 188.298C228.983 188.565 228.623 188.938 228.356 189.418C228.103 189.885 227.976 190.438 227.976 191.078V191.478C227.976 192.118 228.123 192.685 228.416 193.178C228.709 193.671 229.123 194.051 229.656 194.318C230.189 194.585 230.803 194.718 231.496 194.718C232.096 194.718 232.636 194.625 233.116 194.438C233.596 194.251 234.023 193.958 234.396 193.558L235.736 195.098C235.256 195.658 234.649 196.091 233.916 196.398C233.196 196.691 232.369 196.838 231.436 196.838Z" fill="white"/>
<path d="M239.19 196.698V186.018H241.69V190.358H247.07V186.018H249.57V196.698H247.07V192.478H241.69V196.698H239.19Z" fill="white"/>
<path d="M257.681 196.838C256.587 196.838 255.614 196.605 254.761 196.138C253.907 195.658 253.234 195.005 252.741 194.178C252.247 193.351 252.001 192.411 252.001 191.358C252.001 190.291 252.247 189.351 252.741 188.538C253.234 187.711 253.907 187.065 254.761 186.598C255.614 186.131 256.587 185.898 257.681 185.898C258.787 185.898 259.767 186.131 260.621 186.598C261.487 187.065 262.161 187.705 262.641 188.518C263.134 189.331 263.381 190.278 263.381 191.358C263.381 192.411 263.134 193.351 262.641 194.178C262.161 195.005 261.487 195.658 260.621 196.138C259.767 196.605 258.787 196.838 257.681 196.838ZM257.681 194.698C258.294 194.698 258.841 194.565 259.321 194.298C259.801 194.031 260.174 193.645 260.441 193.138C260.721 192.631 260.861 192.038 260.861 191.358C260.861 190.665 260.721 190.071 260.441 189.578C260.174 189.071 259.801 188.685 259.321 188.418C258.841 188.151 258.301 188.018 257.701 188.018C257.087 188.018 256.541 188.151 256.061 188.418C255.594 188.685 255.221 189.071 254.941 189.578C254.661 190.071 254.521 190.665 254.521 191.358C254.521 192.038 254.661 192.631 254.941 193.138C255.221 193.645 255.594 194.031 256.061 194.298C256.541 194.565 257.081 194.698 257.681 194.698Z" fill="white"/>
</svg>
