<svg width="300" height="301" viewBox="0 0 300 301" fill="none" xmlns="http://www.w3.org/2000/svg">
<circle cx="150.4" cy="150.433" r="144.6" stroke="#00A480" stroke-width="10"/>
<path d="M78.7999 142.254V133.614L111.92 90.3181H125.264L92.624 133.614L86.384 131.694H139.664V142.254H78.7999ZM115.664 157.518V142.254L116.048 131.694V118.158H127.76V157.518H115.664ZM147.271 172.014L152.839 150.798L154.471 157.902C152.231 157.902 150.343 157.23 148.807 155.886C147.335 154.478 146.599 152.59 146.599 150.222C146.599 147.79 147.335 145.87 148.807 144.462C150.343 142.99 152.199 142.254 154.375 142.254C156.615 142.254 158.471 142.99 159.943 144.462C161.415 145.934 162.151 147.854 162.151 150.222C162.151 150.862 162.087 151.566 161.959 152.334C161.831 153.038 161.607 153.87 161.287 154.83C161.031 155.79 160.583 157.006 159.943 158.478L155.047 172.014H147.271ZM192.885 89.3581C199.029 89.3581 204.245 90.6701 208.533 93.2941C212.885 95.8541 216.213 99.5981 218.517 104.526C220.821 109.454 221.973 115.534 221.973 122.766C221.973 130.446 220.565 136.942 217.749 142.254C214.997 147.566 211.157 151.598 206.229 154.35C201.301 157.102 195.573 158.478 189.045 158.478C185.653 158.478 182.421 158.126 179.349 157.422C176.277 156.718 173.621 155.63 171.381 154.158L175.989 144.75C177.845 145.966 179.861 146.83 182.037 147.342C184.213 147.79 186.453 148.014 188.757 148.014C195.093 148.014 200.117 146.062 203.829 142.158C207.541 138.254 209.397 132.494 209.397 124.878C209.397 123.662 209.365 122.254 209.301 120.654C209.237 118.99 209.013 117.326 208.629 115.662L212.469 119.886C211.381 122.51 209.813 124.718 207.765 126.51C205.717 128.238 203.317 129.55 200.565 130.446C197.813 131.342 194.773 131.79 191.445 131.79C187.093 131.79 183.157 130.958 179.637 129.294C176.181 127.566 173.429 125.166 171.381 122.094C169.333 118.958 168.309 115.31 168.309 111.15C168.309 106.67 169.397 102.83 171.573 99.6301C173.749 96.3661 176.693 93.8381 180.405 92.0461C184.181 90.2541 188.341 89.3581 192.885 89.3581ZM193.557 99.1501C190.997 99.1501 188.725 99.6301 186.741 100.59C184.757 101.486 183.189 102.798 182.037 104.526C180.949 106.19 180.405 108.206 180.405 110.574C180.405 114.094 181.621 116.878 184.053 118.926C186.485 120.974 189.749 121.998 193.845 121.998C196.533 121.998 198.901 121.518 200.949 120.558C202.997 119.534 204.597 118.158 205.749 116.43C206.901 114.638 207.477 112.654 207.477 110.478C207.477 108.366 206.933 106.478 205.845 104.814C204.757 103.086 203.189 101.71 201.141 100.686C199.093 99.6621 196.565 99.1501 193.557 99.1501Z" fill="white"/>
<path d="M42.4359 196.898C41.3693 196.898 40.3759 196.725 39.4559 196.378C38.5493 196.018 37.7559 195.518 37.0759 194.878C36.4093 194.225 35.8893 193.458 35.5159 192.578C35.1426 191.698 34.9559 190.738 34.9559 189.698C34.9559 188.658 35.1426 187.698 35.5159 186.818C35.8893 185.938 36.4159 185.178 37.0959 184.538C37.7759 183.885 38.5693 183.385 39.4759 183.038C40.3826 182.678 41.3759 182.498 42.4559 182.498C43.6026 182.498 44.6493 182.698 45.5959 183.098C46.5426 183.485 47.3426 184.065 47.9959 184.838L46.3159 186.418C45.8093 185.871 45.2426 185.465 44.6159 185.198C43.9893 184.918 43.3093 184.778 42.5759 184.778C41.8426 184.778 41.1693 184.898 40.5559 185.138C39.9559 185.378 39.4293 185.718 38.9759 186.158C38.5359 186.598 38.1893 187.118 37.9359 187.718C37.6959 188.318 37.5759 188.978 37.5759 189.698C37.5759 190.418 37.6959 191.078 37.9359 191.678C38.1893 192.278 38.5359 192.798 38.9759 193.238C39.4293 193.678 39.9559 194.018 40.5559 194.258C41.1693 194.498 41.8426 194.618 42.5759 194.618C43.3093 194.618 43.9893 194.485 44.6159 194.218C45.2426 193.938 45.8093 193.518 46.3159 192.958L47.9959 194.558C47.3426 195.318 46.5426 195.898 45.5959 196.298C44.6493 196.698 43.5959 196.898 42.4359 196.898Z" fill="white"/>
<path d="M56.05 196.838C55.1833 196.838 54.39 196.638 53.67 196.238C52.9633 195.838 52.3967 195.238 51.97 194.438C51.5567 193.625 51.35 192.598 51.35 191.358C51.35 190.105 51.55 189.078 51.95 188.278C52.3633 187.478 52.9233 186.885 53.63 186.498C54.3367 186.098 55.1433 185.898 56.05 185.898C57.1033 185.898 58.03 186.125 58.83 186.578C59.6433 187.031 60.2833 187.665 60.75 188.478C61.23 189.291 61.47 190.251 61.47 191.358C61.47 192.465 61.23 193.431 60.75 194.258C60.2833 195.071 59.6433 195.705 58.83 196.158C58.03 196.611 57.1033 196.838 56.05 196.838ZM50.13 200.578V186.018H52.51V188.538L52.43 191.378L52.63 194.218V200.578H50.13ZM55.77 194.698C56.37 194.698 56.9033 194.565 57.37 194.298C57.85 194.031 58.23 193.645 58.51 193.138C58.79 192.631 58.93 192.038 58.93 191.358C58.93 190.665 58.79 190.071 58.51 189.578C58.23 189.071 57.85 188.685 57.37 188.418C56.9033 188.151 56.37 188.018 55.77 188.018C55.17 188.018 54.63 188.151 54.15 188.418C53.67 188.685 53.29 189.071 53.01 189.578C52.73 190.071 52.59 190.665 52.59 191.358C52.59 192.038 52.73 192.631 53.01 193.138C53.29 193.645 53.67 194.031 54.15 194.298C54.63 194.565 55.17 194.698 55.77 194.698Z" fill="white"/>
<path d="M68.9381 196.838C67.7515 196.838 66.7115 196.605 65.8181 196.138C64.9381 195.658 64.2515 195.005 63.7581 194.178C63.2781 193.351 63.0381 192.411 63.0381 191.358C63.0381 190.291 63.2715 189.351 63.7381 188.538C64.2181 187.711 64.8715 187.065 65.6981 186.598C66.5381 186.131 67.4915 185.898 68.5581 185.898C69.5981 185.898 70.5248 186.125 71.3381 186.578C72.1515 187.031 72.7915 187.671 73.2581 188.498C73.7248 189.325 73.9581 190.298 73.9581 191.418C73.9581 191.525 73.9515 191.645 73.9381 191.778C73.9381 191.911 73.9315 192.038 73.9181 192.158H65.0181V190.498H72.5981L71.6181 191.018C71.6315 190.405 71.5048 189.865 71.2381 189.398C70.9715 188.931 70.6048 188.565 70.1381 188.298C69.6848 188.031 69.1581 187.898 68.5581 187.898C67.9448 187.898 67.4048 188.031 66.9381 188.298C66.4848 188.565 66.1248 188.938 65.8581 189.418C65.6048 189.885 65.4781 190.438 65.4781 191.078V191.478C65.4781 192.118 65.6248 192.685 65.9181 193.178C66.2115 193.671 66.6248 194.051 67.1581 194.318C67.6915 194.585 68.3048 194.718 68.9981 194.718C69.5981 194.718 70.1381 194.625 70.6181 194.438C71.0981 194.251 71.5248 193.958 71.8981 193.558L73.2381 195.098C72.7581 195.658 72.1515 196.091 71.4181 196.398C70.6981 196.691 69.8715 196.838 68.9381 196.838Z" fill="white"/>
<path d="M83.8758 195.538V188.138H79.7758L79.7158 189.858C79.6891 190.471 79.6491 191.065 79.5958 191.638C79.5424 192.198 79.4558 192.718 79.3358 193.198C79.2158 193.665 79.0424 194.051 78.8158 194.358C78.5891 194.665 78.2891 194.865 77.9158 194.958L75.4358 194.578C75.8358 194.578 76.1558 194.451 76.3958 194.198C76.6491 193.931 76.8424 193.571 76.9758 193.118C77.1224 192.651 77.2291 192.125 77.2958 191.538C77.3624 190.938 77.4091 190.318 77.4358 189.678L77.5758 186.018H86.3758V195.538H83.8758ZM75.0558 199.078V194.578H87.9558V199.078H85.6158V196.698H77.3758V199.078H75.0558Z" fill="white"/>
<path d="M90.1886 196.698V186.018H92.6886V190.358H98.0686V186.018H100.569V196.698H98.0686V192.478H92.6886V196.698H90.1886Z" fill="white"/>
<path d="M103.919 196.698V186.018H106.419V193.058L112.319 186.018H114.599V196.698H112.099V189.658L106.219 196.698H103.919Z" fill="white"/>
<path d="M117.962 196.698V186.018H120.462V193.058L126.362 186.018H128.642V196.698H126.142V189.658L120.262 196.698H117.962ZM123.142 184.758C122.075 184.758 121.255 184.511 120.682 184.018C120.109 183.511 119.815 182.778 119.802 181.818H121.462C121.475 182.298 121.622 182.678 121.902 182.958C122.195 183.238 122.602 183.378 123.122 183.378C123.629 183.378 124.029 183.238 124.322 182.958C124.629 182.678 124.789 182.298 124.802 181.818H126.502C126.489 182.778 126.189 183.511 125.602 184.018C125.029 184.511 124.209 184.758 123.142 184.758Z" fill="white"/>
<path d="M142.632 196.898C141.752 196.898 140.966 196.765 140.272 196.498C139.579 196.231 138.979 195.825 138.472 195.278C137.979 194.718 137.599 194.011 137.332 193.158C137.066 192.305 136.932 191.291 136.932 190.118C136.932 189.265 137.006 188.485 137.152 187.778C137.299 187.071 137.519 186.438 137.812 185.878C138.106 185.305 138.472 184.798 138.912 184.358C139.366 183.918 139.892 183.551 140.492 183.258C141.092 182.965 141.772 182.738 142.532 182.578L147.492 181.518L147.852 183.758L143.352 184.678C143.099 184.731 142.792 184.811 142.432 184.918C142.086 185.011 141.726 185.158 141.352 185.358C140.992 185.545 140.652 185.818 140.332 186.178C140.026 186.525 139.772 186.978 139.572 187.538C139.386 188.085 139.292 188.771 139.292 189.598C139.292 189.851 139.299 190.045 139.312 190.178C139.339 190.298 139.359 190.431 139.372 190.578C139.399 190.711 139.412 190.911 139.412 191.178L138.472 190.198C138.739 189.518 139.106 188.938 139.572 188.458C140.052 187.965 140.606 187.591 141.232 187.338C141.872 187.071 142.566 186.938 143.312 186.938C144.312 186.938 145.199 187.145 145.972 187.558C146.746 187.971 147.352 188.551 147.792 189.298C148.232 190.045 148.452 190.891 148.452 191.838C148.452 192.825 148.212 193.698 147.732 194.458C147.252 195.218 146.572 195.818 145.692 196.258C144.826 196.685 143.806 196.898 142.632 196.898ZM142.832 194.878C143.432 194.878 143.959 194.751 144.412 194.498C144.879 194.231 145.239 193.871 145.492 193.418C145.759 192.965 145.892 192.458 145.892 191.898C145.892 191.338 145.759 190.851 145.492 190.438C145.239 190.011 144.879 189.671 144.412 189.418C143.959 189.165 143.419 189.038 142.792 189.038C142.192 189.038 141.652 189.158 141.172 189.398C140.706 189.638 140.339 189.971 140.072 190.398C139.819 190.811 139.692 191.291 139.692 191.838C139.692 192.398 139.826 192.911 140.092 193.378C140.359 193.845 140.726 194.211 141.192 194.478C141.672 194.745 142.219 194.878 142.832 194.878Z" fill="white"/>
<path d="M157.215 196.698V194.538L157.075 194.078V190.298C157.075 189.565 156.855 188.998 156.415 188.598C155.975 188.185 155.309 187.978 154.415 187.978C153.815 187.978 153.222 188.071 152.635 188.258C152.062 188.445 151.575 188.705 151.175 189.038L150.195 187.218C150.769 186.778 151.449 186.451 152.235 186.238C153.035 186.011 153.862 185.898 154.715 185.898C156.262 185.898 157.455 186.271 158.295 187.018C159.149 187.751 159.575 188.891 159.575 190.438V196.698H157.215ZM153.855 196.838C153.055 196.838 152.355 196.705 151.755 196.438C151.155 196.158 150.689 195.778 150.355 195.298C150.035 194.805 149.875 194.251 149.875 193.638C149.875 193.038 150.015 192.498 150.295 192.018C150.589 191.538 151.062 191.158 151.715 190.878C152.369 190.598 153.235 190.458 154.315 190.458H157.415V192.118H154.495C153.642 192.118 153.069 192.258 152.775 192.538C152.482 192.805 152.335 193.138 152.335 193.538C152.335 193.991 152.515 194.351 152.875 194.618C153.235 194.885 153.735 195.018 154.375 195.018C154.989 195.018 155.535 194.878 156.015 194.598C156.509 194.318 156.862 193.905 157.075 193.358L157.495 194.858C157.255 195.485 156.822 195.971 156.195 196.318C155.582 196.665 154.802 196.838 153.855 196.838Z" fill="white"/>
<path d="M161.109 196.678L161.229 194.578C161.322 194.591 161.409 194.605 161.489 194.618C161.569 194.631 161.642 194.638 161.709 194.638C162.122 194.638 162.442 194.511 162.669 194.258C162.896 194.005 163.062 193.665 163.169 193.238C163.289 192.798 163.369 192.311 163.409 191.778C163.462 191.231 163.502 190.685 163.529 190.138L163.709 186.018H172.349V196.698H169.849V187.458L170.429 188.138H165.349L165.889 187.438L165.749 190.258C165.709 191.205 165.629 192.085 165.509 192.898C165.402 193.698 165.229 194.398 164.989 194.998C164.762 195.598 164.442 196.065 164.029 196.398C163.629 196.731 163.116 196.898 162.489 196.898C162.289 196.898 162.069 196.878 161.829 196.838C161.602 196.798 161.362 196.745 161.109 196.678Z" fill="white"/>
<path d="M174.156 196.678L174.276 194.578C174.369 194.591 174.456 194.605 174.536 194.618C174.616 194.631 174.689 194.638 174.756 194.638C175.169 194.638 175.489 194.511 175.716 194.258C175.943 194.005 176.109 193.665 176.216 193.238C176.336 192.798 176.416 192.311 176.456 191.778C176.509 191.231 176.549 190.685 176.576 190.138L176.756 186.018H185.396V196.698H182.896V187.458L183.476 188.138H178.396L178.936 187.438L178.796 190.258C178.756 191.205 178.676 192.085 178.556 192.898C178.449 193.698 178.276 194.398 178.036 194.998C177.809 195.598 177.489 196.065 177.076 196.398C176.676 196.731 176.163 196.898 175.536 196.898C175.336 196.898 175.116 196.878 174.876 196.838C174.649 196.798 174.409 196.745 174.156 196.678Z" fill="white"/>
<path d="M199.05 196.838C197.957 196.838 196.983 196.605 196.13 196.138C195.277 195.658 194.603 195.005 194.11 194.178C193.617 193.351 193.37 192.411 193.37 191.358C193.37 190.291 193.617 189.351 194.11 188.538C194.603 187.711 195.277 187.065 196.13 186.598C196.983 186.131 197.957 185.898 199.05 185.898C200.157 185.898 201.137 186.131 201.99 186.598C202.857 187.065 203.53 187.705 204.01 188.518C204.503 189.331 204.75 190.278 204.75 191.358C204.75 192.411 204.503 193.351 204.01 194.178C203.53 195.005 202.857 195.658 201.99 196.138C201.137 196.605 200.157 196.838 199.05 196.838ZM199.05 194.698C199.663 194.698 200.21 194.565 200.69 194.298C201.17 194.031 201.543 193.645 201.81 193.138C202.09 192.631 202.23 192.038 202.23 191.358C202.23 190.665 202.09 190.071 201.81 189.578C201.543 189.071 201.17 188.685 200.69 188.418C200.21 188.151 199.67 188.018 199.07 188.018C198.457 188.018 197.91 188.151 197.43 188.418C196.963 188.685 196.59 189.071 196.31 189.578C196.03 190.071 195.89 190.665 195.89 191.358C195.89 192.038 196.03 192.631 196.31 193.138C196.59 193.645 196.963 194.031 197.43 194.298C197.91 194.565 198.45 194.698 199.05 194.698Z" fill="white"/>
<path d="M209.049 196.698V187.538L209.629 188.138H205.289V186.018H215.289V188.138H210.969L211.549 187.538V196.698H209.049Z" fill="white"/>
<path d="M220.307 196.878C221.294 196.878 222.167 196.738 222.927 196.458C223.7 196.178 224.307 195.791 224.747 195.298C225.187 194.791 225.407 194.211 225.407 193.558C225.407 192.745 225.067 192.105 224.387 191.638C223.707 191.158 222.774 190.918 221.587 190.918L221.507 191.458C222.2 191.458 222.814 191.345 223.347 191.118C223.894 190.891 224.32 190.578 224.627 190.178C224.947 189.765 225.107 189.305 225.107 188.798C225.107 188.185 224.887 187.651 224.447 187.198C224.007 186.745 223.407 186.398 222.647 186.158C221.887 185.918 221.02 185.818 220.047 185.858C219.407 185.871 218.76 185.965 218.107 186.138C217.467 186.298 216.807 186.531 216.127 186.838L216.767 188.678C217.354 188.425 217.927 188.231 218.487 188.098C219.06 187.965 219.614 187.898 220.147 187.898C220.654 187.898 221.087 187.951 221.447 188.058C221.807 188.151 222.08 188.298 222.267 188.498C222.467 188.685 222.567 188.905 222.567 189.158C222.567 189.411 222.487 189.631 222.327 189.818C222.167 190.005 221.934 190.145 221.627 190.238C221.334 190.331 220.974 190.378 220.547 190.378H218.687V192.058H220.747C221.427 192.058 221.947 192.171 222.307 192.398C222.68 192.611 222.867 192.931 222.867 193.358C222.867 193.651 222.754 193.911 222.527 194.138C222.314 194.365 222.007 194.538 221.607 194.658C221.207 194.765 220.727 194.818 220.167 194.818C219.514 194.818 218.86 194.738 218.207 194.578C217.554 194.418 216.967 194.191 216.447 193.898L215.747 195.758C216.387 196.118 217.1 196.398 217.887 196.598C218.687 196.785 219.494 196.878 220.307 196.878Z" fill="white"/>
<path d="M238.762 196.698V186.018H241.262V196.698H238.762ZM233.182 189.538C234.555 189.538 235.595 189.845 236.302 190.458C237.022 191.071 237.382 191.938 237.382 193.058C237.382 194.218 236.982 195.125 236.182 195.778C235.395 196.418 234.275 196.731 232.822 196.718L227.982 196.698V186.018H230.482V189.518L233.182 189.538ZM232.602 194.878C233.335 194.891 233.895 194.738 234.282 194.418C234.668 194.098 234.862 193.631 234.862 193.018C234.862 192.405 234.668 191.965 234.282 191.698C233.908 191.418 233.348 191.271 232.602 191.258L230.482 191.238V194.858L232.602 194.878Z" fill="white"/>
<path d="M244.622 196.698V186.018H249.842C251.136 186.018 252.149 186.258 252.882 186.738C253.629 187.218 254.002 187.898 254.002 188.778C254.002 189.645 253.656 190.325 252.962 190.818C252.269 191.298 251.349 191.538 250.202 191.538L250.502 190.918C251.796 190.918 252.756 191.158 253.382 191.638C254.022 192.105 254.342 192.791 254.342 193.698C254.342 194.645 253.989 195.385 253.282 195.918C252.576 196.438 251.502 196.698 250.062 196.698H244.622ZM247.002 194.878H249.862C250.542 194.878 251.056 194.771 251.402 194.558C251.749 194.331 251.922 193.991 251.922 193.538C251.922 193.058 251.762 192.705 251.442 192.478C251.122 192.251 250.622 192.138 249.942 192.138H247.002V194.878ZM247.002 190.478H249.622C250.262 190.478 250.742 190.365 251.062 190.138C251.396 189.898 251.562 189.565 251.562 189.138C251.562 188.698 251.396 188.371 251.062 188.158C250.742 187.945 250.262 187.838 249.622 187.838H247.002V190.478Z" fill="white"/>
<path d="M263.485 196.698V194.538L263.345 194.078V190.298C263.345 189.565 263.125 188.998 262.685 188.598C262.245 188.185 261.578 187.978 260.685 187.978C260.085 187.978 259.492 188.071 258.905 188.258C258.332 188.445 257.845 188.705 257.445 189.038L256.465 187.218C257.038 186.778 257.718 186.451 258.505 186.238C259.305 186.011 260.132 185.898 260.985 185.898C262.532 185.898 263.725 186.271 264.565 187.018C265.418 187.751 265.845 188.891 265.845 190.438V196.698H263.485ZM260.125 196.838C259.325 196.838 258.625 196.705 258.025 196.438C257.425 196.158 256.958 195.778 256.625 195.298C256.305 194.805 256.145 194.251 256.145 193.638C256.145 193.038 256.285 192.498 256.565 192.018C256.858 191.538 257.332 191.158 257.985 190.878C258.638 190.598 259.505 190.458 260.585 190.458H263.685V192.118H260.765C259.912 192.118 259.338 192.258 259.045 192.538C258.752 192.805 258.605 193.138 258.605 193.538C258.605 193.991 258.785 194.351 259.145 194.618C259.505 194.885 260.005 195.018 260.645 195.018C261.258 195.018 261.805 194.878 262.285 194.598C262.778 194.318 263.132 193.905 263.345 193.358L263.765 194.858C263.525 195.485 263.092 195.971 262.465 196.318C261.852 196.665 261.072 196.838 260.125 196.838Z" fill="white"/>
</svg>
