<svg width="300" height="301" viewBox="0 0 300 301" fill="none" xmlns="http://www.w3.org/2000/svg">
<circle cx="149.6" cy="150.433" r="144.6" stroke="#00A480" stroke-width="10"/>
<path d="M113.708 142.254V133.614L146.828 90.3181H160.172L127.532 133.614L121.292 131.694H174.572V142.254H113.708ZM150.572 157.518V142.254L150.956 131.694V118.158H162.668V157.518H150.572Z" fill="white"/>
<path d="M79.424 196.698V182.698H88.924L88.904 184.898H81.364L81.964 184.278L81.984 196.698H79.424Z" fill="white"/>
<path d="M92.6926 196.838C91.5993 196.838 90.626 196.605 89.7726 196.138C88.9193 195.658 88.246 195.005 87.7526 194.178C87.2593 193.351 87.0126 192.411 87.0126 191.358C87.0126 190.291 87.2593 189.351 87.7526 188.538C88.246 187.711 88.9193 187.065 89.7726 186.598C90.626 186.131 91.5993 185.898 92.6926 185.898C93.7993 185.898 94.7793 186.131 95.6326 186.598C96.4993 187.065 97.1726 187.705 97.6526 188.518C98.146 189.331 98.3926 190.278 98.3926 191.358C98.3926 192.411 98.146 193.351 97.6526 194.178C97.1726 195.005 96.4993 195.658 95.6326 196.138C94.7793 196.605 93.7993 196.838 92.6926 196.838ZM92.6926 194.698C93.306 194.698 93.8526 194.565 94.3326 194.298C94.8126 194.031 95.186 193.645 95.4526 193.138C95.7326 192.631 95.8726 192.038 95.8726 191.358C95.8726 190.665 95.7326 190.071 95.4526 189.578C95.186 189.071 94.8126 188.685 94.3326 188.418C93.8526 188.151 93.3126 188.018 92.7126 188.018C92.0993 188.018 91.5526 188.151 91.0726 188.418C90.606 188.685 90.2326 189.071 89.9526 189.578C89.6726 190.071 89.5326 190.665 89.5326 191.358C89.5326 192.038 89.6726 192.631 89.9526 193.138C90.2326 193.645 90.606 194.031 91.0726 194.298C91.5526 194.565 92.0926 194.698 92.6926 194.698Z" fill="white"/>
<path d="M108.065 195.538V188.138H103.965L103.905 189.858C103.878 190.471 103.838 191.065 103.785 191.638C103.732 192.198 103.645 192.718 103.525 193.198C103.405 193.665 103.232 194.051 103.005 194.358C102.778 194.665 102.478 194.865 102.105 194.958L99.6251 194.578C100.025 194.578 100.345 194.451 100.585 194.198C100.838 193.931 101.032 193.571 101.165 193.118C101.312 192.651 101.418 192.125 101.485 191.538C101.552 190.938 101.598 190.318 101.625 189.678L101.765 186.018H110.565V195.538H108.065ZM99.2451 199.078V194.578H112.145V199.078H109.805V196.698H101.565V199.078H99.2451Z" fill="white"/>
<path d="M120.858 196.698V194.538L120.718 194.078V190.298C120.718 189.565 120.498 188.998 120.058 188.598C119.618 188.185 118.951 187.978 118.058 187.978C117.458 187.978 116.865 188.071 116.278 188.258C115.705 188.445 115.218 188.705 114.818 189.038L113.838 187.218C114.411 186.778 115.091 186.451 115.878 186.238C116.678 186.011 117.505 185.898 118.358 185.898C119.905 185.898 121.098 186.271 121.938 187.018C122.791 187.751 123.218 188.891 123.218 190.438V196.698H120.858ZM117.498 196.838C116.698 196.838 115.998 196.705 115.398 196.438C114.798 196.158 114.331 195.778 113.998 195.298C113.678 194.805 113.518 194.251 113.518 193.638C113.518 193.038 113.658 192.498 113.938 192.018C114.231 191.538 114.705 191.158 115.358 190.878C116.011 190.598 116.878 190.458 117.958 190.458H121.058V192.118H118.138C117.285 192.118 116.711 192.258 116.418 192.538C116.125 192.805 115.978 193.138 115.978 193.538C115.978 193.991 116.158 194.351 116.518 194.618C116.878 194.885 117.378 195.018 118.018 195.018C118.631 195.018 119.178 194.878 119.658 194.598C120.151 194.318 120.505 193.905 120.718 193.358L121.138 194.858C120.898 195.485 120.465 195.971 119.838 196.318C119.225 196.665 118.445 196.838 117.498 196.838Z" fill="white"/>
<path d="M137.759 196.838C136.892 196.838 136.099 196.638 135.379 196.238C134.672 195.838 134.106 195.238 133.679 194.438C133.266 193.625 133.059 192.598 133.059 191.358C133.059 190.105 133.259 189.078 133.659 188.278C134.072 187.478 134.632 186.885 135.339 186.498C136.046 186.098 136.852 185.898 137.759 185.898C138.812 185.898 139.739 186.125 140.539 186.578C141.352 187.031 141.992 187.665 142.459 188.478C142.939 189.291 143.179 190.251 143.179 191.358C143.179 192.465 142.939 193.431 142.459 194.258C141.992 195.071 141.352 195.705 140.539 196.158C139.739 196.611 138.812 196.838 137.759 196.838ZM131.839 200.578V186.018H134.219V188.538L134.139 191.378L134.339 194.218V200.578H131.839ZM137.479 194.698C138.079 194.698 138.612 194.565 139.079 194.298C139.559 194.031 139.939 193.645 140.219 193.138C140.499 192.631 140.639 192.038 140.639 191.358C140.639 190.665 140.499 190.071 140.219 189.578C139.939 189.071 139.559 188.685 139.079 188.418C138.612 188.151 138.079 188.018 137.479 188.018C136.879 188.018 136.339 188.151 135.859 188.418C135.379 188.685 134.999 189.071 134.719 189.578C134.439 190.071 134.299 190.665 134.299 191.358C134.299 192.038 134.439 192.631 134.719 193.138C134.999 193.645 135.379 194.031 135.859 194.298C136.339 194.565 136.879 194.698 137.479 194.698Z" fill="white"/>
<path d="M152.01 196.698V194.538L151.87 194.078V190.298C151.87 189.565 151.65 188.998 151.21 188.598C150.77 188.185 150.104 187.978 149.21 187.978C148.61 187.978 148.017 188.071 147.43 188.258C146.857 188.445 146.37 188.705 145.97 189.038L144.99 187.218C145.564 186.778 146.244 186.451 147.03 186.238C147.83 186.011 148.657 185.898 149.51 185.898C151.057 185.898 152.25 186.271 153.09 187.018C153.944 187.751 154.37 188.891 154.37 190.438V196.698H152.01ZM148.65 196.838C147.85 196.838 147.15 196.705 146.55 196.438C145.95 196.158 145.484 195.778 145.15 195.298C144.83 194.805 144.67 194.251 144.67 193.638C144.67 193.038 144.81 192.498 145.09 192.018C145.384 191.538 145.857 191.158 146.51 190.878C147.164 190.598 148.03 190.458 149.11 190.458H152.21V192.118H149.29C148.437 192.118 147.864 192.258 147.57 192.538C147.277 192.805 147.13 193.138 147.13 193.538C147.13 193.991 147.31 194.351 147.67 194.618C148.03 194.885 148.53 195.018 149.17 195.018C149.784 195.018 150.33 194.878 150.81 194.598C151.304 194.318 151.657 193.905 151.87 193.358L152.29 194.858C152.05 195.485 151.617 195.971 150.99 196.318C150.377 196.665 149.597 196.838 148.65 196.838Z" fill="white"/>
<path d="M162.564 196.898C161.684 196.898 160.897 196.765 160.204 196.498C159.511 196.231 158.911 195.825 158.404 195.278C157.911 194.718 157.531 194.011 157.264 193.158C156.997 192.305 156.864 191.291 156.864 190.118C156.864 189.265 156.937 188.485 157.084 187.778C157.231 187.071 157.451 186.438 157.744 185.878C158.037 185.305 158.404 184.798 158.844 184.358C159.297 183.918 159.824 183.551 160.424 183.258C161.024 182.965 161.704 182.738 162.464 182.578L167.424 181.518L167.784 183.758L163.284 184.678C163.031 184.731 162.724 184.811 162.364 184.918C162.017 185.011 161.657 185.158 161.284 185.358C160.924 185.545 160.584 185.818 160.264 186.178C159.957 186.525 159.704 186.978 159.504 187.538C159.317 188.085 159.224 188.771 159.224 189.598C159.224 189.851 159.231 190.045 159.244 190.178C159.271 190.298 159.291 190.431 159.304 190.578C159.331 190.711 159.344 190.911 159.344 191.178L158.404 190.198C158.671 189.518 159.037 188.938 159.504 188.458C159.984 187.965 160.537 187.591 161.164 187.338C161.804 187.071 162.497 186.938 163.244 186.938C164.244 186.938 165.131 187.145 165.904 187.558C166.677 187.971 167.284 188.551 167.724 189.298C168.164 190.045 168.384 190.891 168.384 191.838C168.384 192.825 168.144 193.698 167.664 194.458C167.184 195.218 166.504 195.818 165.624 196.258C164.757 196.685 163.737 196.898 162.564 196.898ZM162.764 194.878C163.364 194.878 163.891 194.751 164.344 194.498C164.811 194.231 165.171 193.871 165.424 193.418C165.691 192.965 165.824 192.458 165.824 191.898C165.824 191.338 165.691 190.851 165.424 190.438C165.171 190.011 164.811 189.671 164.344 189.418C163.891 189.165 163.351 189.038 162.724 189.038C162.124 189.038 161.584 189.158 161.104 189.398C160.637 189.638 160.271 189.971 160.004 190.398C159.751 190.811 159.624 191.291 159.624 191.838C159.624 192.398 159.757 192.911 160.024 193.378C160.291 193.845 160.657 194.211 161.124 194.478C161.604 194.745 162.151 194.878 162.764 194.878Z" fill="white"/>
<path d="M175.564 196.838C174.47 196.838 173.497 196.605 172.644 196.138C171.79 195.658 171.117 195.005 170.624 194.178C170.13 193.351 169.884 192.411 169.884 191.358C169.884 190.291 170.13 189.351 170.624 188.538C171.117 187.711 171.79 187.065 172.644 186.598C173.497 186.131 174.47 185.898 175.564 185.898C176.67 185.898 177.65 186.131 178.504 186.598C179.37 187.065 180.044 187.705 180.524 188.518C181.017 189.331 181.264 190.278 181.264 191.358C181.264 192.411 181.017 193.351 180.524 194.178C180.044 195.005 179.37 195.658 178.504 196.138C177.65 196.605 176.67 196.838 175.564 196.838ZM175.564 194.698C176.177 194.698 176.724 194.565 177.204 194.298C177.684 194.031 178.057 193.645 178.324 193.138C178.604 192.631 178.744 192.038 178.744 191.358C178.744 190.665 178.604 190.071 178.324 189.578C178.057 189.071 177.684 188.685 177.204 188.418C176.724 188.151 176.184 188.018 175.584 188.018C174.97 188.018 174.424 188.151 173.944 188.418C173.477 188.685 173.104 189.071 172.824 189.578C172.544 190.071 172.404 190.665 172.404 191.358C172.404 192.038 172.544 192.631 172.824 193.138C173.104 193.645 173.477 194.031 173.944 194.298C174.424 194.565 174.964 194.698 175.564 194.698Z" fill="white"/>
<path d="M185.563 196.698V187.538L186.143 188.138H181.803V186.018H191.803V188.138H187.483L188.063 187.538V196.698H185.563Z" fill="white"/>
<path d="M204.396 196.698V186.018H206.896V196.698H204.396ZM198.816 189.538C200.19 189.538 201.23 189.845 201.936 190.458C202.656 191.071 203.016 191.938 203.016 193.058C203.016 194.218 202.616 195.125 201.816 195.778C201.03 196.418 199.91 196.731 198.456 196.718L193.616 196.698V186.018H196.116V189.518L198.816 189.538ZM198.236 194.878C198.97 194.891 199.53 194.738 199.916 194.418C200.303 194.098 200.496 193.631 200.496 193.018C200.496 192.405 200.303 191.965 199.916 191.698C199.543 191.418 198.983 191.271 198.236 191.258L196.116 191.238V194.858L198.236 194.878Z" fill="white"/>
</svg>
